<svg width="90" height="90" viewBox="0 0 90 90" fill="none" xmlns="http://www.w3.org/2000/svg">
<path fill-rule="evenodd" clip-rule="evenodd" d="M48.7314 7.81067C40.6073 9.30435 34.0719 15.7515 32.413 23.9084C32.0016 25.9315 31.9754 30.1233 32.3626 31.9955C32.5159 32.736 32.6128 33.3418 32.5782 33.3418C32.5437 33.3418 32.0575 33.0475 31.4981 32.688C30.9385 32.3285 29.7154 31.7818 28.7799 31.4733C27.3433 30.9996 26.6828 30.9108 24.5278 30.9029C20.6851 30.8887 17.7509 31.5323 12.3839 33.5671C9.30253 34.7353 7.08929 35.1804 3.37333 35.3787C1.10757 35.4996 0.893266 35.5491 0.44998 36.0532C-0.146384 36.7311 -0.148723 37.0062 0.435522 37.7586L0.899432 38.3562L3.9967 38.2384C7.54512 38.1033 9.6106 37.7171 12.4989 36.6484C18.788 34.3211 20.605 33.8965 24.3152 33.887C26.4436 33.8814 27.1033 33.9633 28.2954 34.3805C30.2535 35.066 31.901 36.3572 33.0482 38.1057C33.5674 38.8967 34.1427 39.6026 34.3267 39.6741C34.5108 39.7456 36.8399 39.8042 39.5024 39.8042C44.4833 39.8042 45.246 39.9065 46.3447 40.7221C47.071 41.2613 47.7824 42.5622 47.8561 43.4859L47.9146 44.2202L33.9437 44.334L30.1081 42.7924C25.9289 41.1131 25.4437 41.0594 24.8971 42.2151C24.6118 42.8183 24.8556 43.7592 25.3538 43.977C25.4841 44.0341 27.2604 44.7665 29.3012 45.6045L33.0115 47.1283H64.7929L65.1137 47.5925C65.453 48.0832 65.2904 48.7043 64.7697 48.9066C64.6202 48.9645 58.8182 49.9179 51.8763 51.0249L39.2547 53.038L17.4233 48.6196L9.49473 50.7925C5.13394 51.9874 1.31125 53.0658 0.999782 53.1888C0.6881 53.3118 0.315399 53.701 0.171039 54.0537C-0.0573019 54.6122 -0.0362537 54.7701 0.333258 55.274C0.566701 55.5922 0.990853 55.8812 1.27553 55.9164C1.56043 55.9512 5.32996 54.9989 9.65248 53.7997L17.5117 51.6195L39.2751 56.0172L52.4181 53.9242C67.0846 51.5887 66.9292 51.6298 67.773 49.8636C68.7429 47.8336 68.0502 45.6799 66.113 44.7017L65.064 44.1722L66.3377 42.9036C72.6585 36.6088 74.3745 27.327 70.6787 19.4221C69.5138 16.9305 68.7523 15.806 66.8688 13.797C62.3173 8.94224 55.2551 6.61145 48.7314 7.81067ZM57.2693 11.1487C69.2185 14.9958 73.5566 29.287 65.7858 39.2058C64.5418 40.7936 62.3864 42.5891 60.552 43.5658L59.1031 44.3374L50.8911 44.2202L50.7599 43.1313C50.494 40.9235 49.125 38.8564 47.2404 37.817C45.8555 37.0534 44.0892 36.7921 40.3001 36.7901L37.1503 36.7884L36.4476 35.2267C35.3567 32.8022 34.9526 30.818 34.9664 27.9564C34.9806 25.027 35.3657 23.2738 36.5746 20.6328C38.8403 15.6826 43.2793 12.0436 48.5524 10.8135C50.5358 10.351 55.3684 10.537 57.2693 11.1487ZM63.6476 57.3919C60.0764 57.9746 57.0297 59.6855 55.2068 62.1319L54.3741 63.2495L44.7149 63.3921L43.2961 64.1002C41.0025 65.2449 39.304 67.6967 39.304 69.8627V70.6085L32.5537 70.6136C25.5889 70.6192 24.3773 70.7351 23.3217 71.4966C22.099 72.3788 21.5347 74.4179 22.0958 75.926C22.4096 76.7691 23.5196 77.883 24.2999 78.1376C24.6592 78.2548 30.7863 79.2843 37.9161 80.4253L50.8792 82.5L72.6064 78.1008L80.5567 80.3041C89.0988 82.6713 89.3118 82.6999 89.8542 81.5533C90.1829 80.8583 89.8821 80.0253 89.1902 79.7143C88.94 79.6018 85.1175 78.512 80.6959 77.2924L72.6564 75.0749L50.8025 79.4997L38.0932 77.4774C24.4245 75.3026 24.2214 75.2522 24.91 74.2009L25.2173 73.732L57.4819 73.5166L60.99 72.0474C62.9194 71.2392 64.6774 70.4006 64.8966 70.1835C65.7014 69.3867 65.1307 67.8081 64.0381 67.8081C63.763 67.8081 61.9869 68.4382 60.0911 69.2083L56.6443 70.6085H42.0341L42.1833 69.9084C42.4476 68.6672 43.1178 67.6075 44.0224 67.0005L44.9056 66.4079L50.3432 66.3002C53.334 66.241 55.9021 66.1132 56.0498 66.0163C56.1978 65.9193 56.5188 65.4426 56.7635 64.9569C57.338 63.8158 58.9294 62.2541 60.2601 61.5253C62.0641 60.5374 63.7675 60.2065 66.4115 60.3306C69.5219 60.4765 72.312 61.1294 76.2977 62.6437C80.2035 64.1279 82.2029 64.5519 86.1232 64.7272C89.2521 64.8675 89.5398 64.7953 89.9218 63.777C90.1842 63.0778 89.7641 62.275 88.9931 62.0027C88.6411 61.8782 87.4709 61.7765 86.3927 61.7765C83.9057 61.7765 81.1581 61.2929 78.849 60.4485C74.1778 58.7402 72.846 58.3193 70.7699 57.8947C68.5775 57.4462 64.9043 57.1871 63.6476 57.3919Z" fill="white"/>
<path d="M44.8939 22.6983C45.7951 18.4475 49.1731 15.3285 53.3538 14.8871C53.6025 14.8608 53.9269 14.8359 54.0746 14.8317L54.3432 14.8241V16.762L53.9615 16.7973C51.8147 16.9955 50.1885 17.7559 48.8091 19.2065C47.7528 20.3174 47.1112 21.5466 46.7822 23.09C46.6409 23.7524 46.6434 25.4842 46.7865 26.1496C47.1253 27.7255 47.8099 29.0031 48.912 30.1164C49.8582 31.0722 50.9167 31.719 52.1472 32.0931C52.7307 32.2705 53.5224 32.4044 53.9898 32.4047L54.3432 32.405V34.3819L53.6742 34.3414C52.0208 34.2412 50.4438 33.6932 48.9723 32.7074C48.0947 32.1195 46.9619 30.9772 46.3811 30.0942C45.658 28.9951 45.1755 27.8318 44.893 26.5065C44.7816 25.9844 44.7645 25.7354 44.7625 24.6167C44.7606 23.473 44.7753 23.2574 44.8939 22.6983Z" fill="white"/>
<path d="M50.4186 20.3258C51.4117 19.3847 52.6504 18.8512 54.0605 18.757C54.2004 18.7477 54.4039 18.747 54.5128 18.7556C55.3022 18.8173 55.5276 18.8522 55.9652 18.9807C58.2678 19.6565 59.9235 21.7196 60.1333 24.1742L60.1713 24.6194L58.2159 24.5881L58.1797 24.178C58.102 23.2966 57.7448 22.559 57.0597 21.8651C56.2743 21.0695 55.4497 20.7226 54.3444 20.7226C51.7412 20.7226 49.9023 23.273 50.6905 25.7907C51.1539 27.2709 52.4599 28.35 53.9588 28.4911L54.3432 28.5273V30.4749L53.871 30.4412C52.559 30.3474 51.2395 29.7251 50.2698 28.7428C47.9533 26.3964 48.0205 22.5981 50.4186 20.3258Z" fill="white"/>
<path d="M43.8296 33.1801C41.9993 30.8265 41.0509 28.2706 40.8588 25.1737L40.8241 24.6139L42.7816 24.6453L42.8188 25.3898C42.8885 26.7848 43.2939 28.3433 43.9404 29.7012C45.2859 32.5274 47.6952 34.6892 50.6189 35.6936C51.724 36.0732 52.3539 36.1935 53.9615 36.3325L54.3432 36.3655V38.3181L53.7071 38.2787C50.286 38.0666 47.2298 36.6991 44.868 34.3239C44.492 33.9457 44.0246 33.4309 43.8296 33.1801Z" fill="white"/>
<path d="M57.4532 25.9757C57.4478 25.7859 57.4999 25.5929 57.5688 25.5469C57.7306 25.4388 65.0202 25.4623 65.0202 25.5709C65.0202 25.616 64.3535 26.284 63.5387 27.0554L62.0571 28.4579H56.1721L56.1131 31.1828L55.3225 31.1933V27.603H61.6637L62.2879 27.0526C62.6312 26.75 62.912 26.4629 62.912 26.4147C62.912 26.3665 62.7105 26.3323 62.464 26.3386C62.2176 26.3449 60.9915 26.3434 59.7394 26.3354L57.4628 26.3206L57.4532 25.9757Z" fill="white"/>
<path d="M57.5361 31.2556V29.4196H58.3794V30.4017L60.2836 30.3595C61.3309 30.3363 62.2079 30.3503 62.2324 30.3906C62.2571 30.431 61.611 31.0946 60.7969 31.8653L59.3165 33.2666H56.1658V37.1302L57.5293 35.8848L57.5361 34.2284H58.3794V36.2299L57.0354 37.5011C56.2963 38.2002 55.6085 38.8378 55.507 38.9178C55.3322 39.0558 55.3225 38.8892 55.3225 35.7375V32.4118H58.9231L59.5482 31.8606C59.8919 31.5575 60.1451 31.2809 60.1107 31.2461C60.0764 31.2114 59.483 31.1992 58.7922 31.2193L57.5361 31.2556Z" fill="white"/>
</svg>
