<svg width="90" height="90" viewBox="0 0 90 90" fill="none" xmlns="http://www.w3.org/2000/svg">
<g clip-path="url(#clip0_2_652)">
<path fill-rule="evenodd" clip-rule="evenodd" d="M43.0463 0.284435C42.5308 0.44123 38.1026 2.77516 33.2057 5.47087C24.0494 10.5112 22.9709 11.2194 22.1072 12.7572L21.7029 13.477H20.1822H18.6615L17.9464 12.7444L17.2315 12.0116L17.5751 11.0095C18.1258 9.40276 18.0326 7.77104 17.3061 6.29424C15.4941 2.61142 10.8494 1.72523 7.83007 4.4864C6.63983 5.57497 6.01734 6.86909 5.88388 8.53288C5.54105 12.8061 9.75133 16.0101 13.8739 14.613L15.0668 14.2088L16.2474 15.3434L17.4283 16.4779H19.2251H21.0221V20.229V23.98H16.4435H11.8651L11.407 22.9793C10.8437 21.748 9.88497 20.7642 8.59801 20.0973C7.76428 19.6652 7.38528 19.5896 6.0269 19.5847C4.13038 19.578 3.0436 20.017 1.74764 21.313C0.525723 22.5349 0.126288 23.5618 0.126288 25.4805C0.126288 27.3992 0.525723 28.426 1.74764 29.6479C3.00818 30.9085 4.13638 31.3762 5.93318 31.3826C7.16672 31.3871 7.61845 31.301 8.47974 30.8969C9.80344 30.2761 10.8211 29.2627 11.407 27.9817L11.8651 26.9809H16.4435H21.0221V29.9818V32.9826H19.2251H17.4283L16.2474 34.1172L15.0668 35.2517L13.9267 34.8674C11.9702 34.2079 10.0657 34.473 8.50467 35.6215C7.52529 36.3423 6.58922 37.6627 6.58922 38.3234C6.58922 39.0005 7.36691 39.7346 8.08443 39.7346C8.53428 39.7346 8.87317 39.5137 9.64168 38.7199C11.1155 37.1972 12.5824 37.0702 14.0949 38.3347C14.9588 39.057 15.7232 39.174 16.1942 38.6562C16.3584 38.4756 16.9764 37.8005 17.5676 37.1557L18.6424 35.9835H19.8097H20.9771L21.0603 37.1368C21.1265 38.0509 21.2326 38.3619 21.5722 38.6372C22.1754 39.1258 23.0069 39.0785 23.561 38.5239L24.0211 38.0637V27.0229C24.0211 14.7685 24.0116 14.8741 25.2449 13.6034C25.6451 13.191 28.9008 11.2749 33.9956 8.45317C38.4579 5.98158 42.4733 3.77538 42.9185 3.55013C44.0165 2.99497 45.2875 2.86987 46.2892 3.21853C47.8181 3.751 63.8126 12.7431 64.6422 13.5368C66.0358 14.8698 66.0069 14.5869 66.0137 26.9674C66.0199 38.5644 66 38.2942 66.8857 38.7663C67.519 39.1037 68.0438 39.0271 68.5466 38.5239C68.9244 38.146 69.0067 37.8778 69.0067 37.0235V35.9835H70.1966H71.3865L72.4459 37.095C73.0286 37.7062 73.5053 38.2835 73.5053 38.3776C73.5053 38.5913 74.3441 38.9844 74.7997 38.9844C74.9866 38.9844 75.5098 38.6897 75.9624 38.3296C77.5399 37.0745 78.9118 37.1957 80.3871 38.7199C81.5305 39.9011 82.2083 40.0459 82.9794 39.2742C83.5813 38.6721 83.5601 38.1228 82.8947 37.0728C81.5433 34.9405 78.673 33.9926 76.1549 34.8469L74.9621 35.2517L73.7814 34.1172L72.6005 32.9826H70.8037H69.0067V29.9818V26.9809H73.5853H78.1637L78.6218 27.9817C79.1851 29.213 80.1438 30.1967 81.4308 30.8637C82.2645 31.2958 82.6435 31.3714 84.0019 31.3762C85.8984 31.383 86.9852 30.9439 88.2812 29.6479C89.5031 28.426 89.9025 27.3992 89.9025 25.4805C89.9025 23.5618 89.5031 22.5349 88.2812 21.313C86.9852 20.017 85.8984 19.578 84.0019 19.5847C82.6435 19.5896 82.2645 19.6652 81.4308 20.0973C80.1438 20.7642 79.1851 21.748 78.6218 22.9793L78.1637 23.98H73.5853H69.0067V20.229V16.4779H70.8037H72.6005L73.7814 15.3434L74.9621 14.2088L76.1549 14.613C79.0606 15.5979 82.1952 14.2576 83.5755 11.4405C84.0104 10.5527 84.094 10.1408 84.094 8.88192C84.094 7.62306 84.0104 7.21119 83.5755 6.32331C82.9682 5.08395 81.7084 3.85322 80.4735 3.29337C79.2475 2.73746 76.9476 2.73746 75.7216 3.29337C72.8159 4.61094 71.3687 7.86782 72.372 10.8317L72.778 12.0315L72.0727 12.7542C71.3698 13.4746 71.3625 13.477 69.859 13.4766L68.3507 13.4763L67.8463 12.6795C67.5689 12.2414 67.0206 11.573 66.6279 11.1945C65.7175 10.3165 48.6922 0.783329 47.2001 0.315944C45.892 -0.093862 44.3284 -0.105678 43.0463 0.284435ZM13.2113 6.23066C15.137 7.03583 15.6066 9.56218 14.1089 11.0609C12.893 12.2774 11.1569 12.2774 9.94102 11.0609C7.62314 8.74144 10.1808 4.96373 13.2113 6.23066ZM79.1902 6.23066C81.1159 7.03583 81.5854 9.56218 80.0878 11.0609C78.8608 12.2885 77.1819 12.2795 75.942 11.0388C73.6131 8.70844 76.1467 4.95829 79.1902 6.23066ZM27.4803 19.9392L27.0202 20.3994V26.9809V33.5624L27.4803 34.0226C28.0387 34.5814 28.8668 34.6237 29.4829 34.1249C29.9178 33.773 29.9272 33.6955 30.0192 29.6828L30.1129 25.5988L33.3553 29.9306C35.1388 32.3131 36.7271 34.312 36.8851 34.3728C37.479 34.6007 38.111 34.4683 38.5562 34.0226L39.0163 33.5624V26.9809V20.3994L38.5562 19.9392C37.9978 19.3805 37.1697 19.3381 36.5536 19.837C36.1187 20.1888 36.1093 20.2663 36.0173 24.279L35.9236 28.363L32.6812 24.0312C30.8977 21.6487 29.3094 19.6498 29.1514 19.589C28.5576 19.3611 27.9255 19.4936 27.4803 19.9392ZM42.4755 19.9392L42.0154 20.3994V26.9809V33.5624L42.4755 34.0226C42.7655 34.313 43.1498 34.4831 43.5149 34.4831C43.88 34.4831 44.2643 34.313 44.5542 34.0226C44.9975 33.5793 45.0144 33.4692 45.0144 31.0218V28.4813H47.5533C49.9992 28.4813 50.1092 28.4645 50.5523 28.0209C51.1611 27.4119 51.1611 26.5499 50.5523 25.9409C50.1092 25.4974 49.9992 25.4805 47.5533 25.4805H45.0144V23.98V22.4796H47.5533C49.9992 22.4796 50.1092 22.4627 50.5523 22.0192C50.8425 21.729 51.0125 21.3445 51.0125 20.9792C51.0125 20.6138 50.8425 20.2293 50.5523 19.9392C50.0961 19.4825 50.0633 19.4787 46.5139 19.4787C42.9646 19.4787 42.9318 19.4825 42.4755 19.9392ZM54.4717 19.9392C54.1815 20.2293 54.0115 20.6138 54.0115 20.9792C54.0115 21.9368 54.7204 22.4796 55.9712 22.4796H57.0106V28.0209V33.5624L57.4707 34.0226C57.7607 34.313 58.145 34.4831 58.5101 34.4831C58.8752 34.4831 59.2595 34.313 59.5494 34.0226L60.0096 33.5624V28.0209V22.4796H61.049C62.2998 22.4796 63.0086 21.9368 63.0086 20.9792C63.0086 20.6138 62.8386 20.2293 62.5485 19.9392C62.0923 19.4825 62.0595 19.4787 58.5101 19.4787C54.9607 19.4787 54.9279 19.4825 54.4717 19.9392ZM7.21321 22.7354C9.15377 23.5468 9.60531 26.0261 8.08874 27.5436C6.84882 28.7842 5.16992 28.7932 3.94294 27.5657C1.62506 25.2462 4.18268 21.4685 7.21321 22.7354ZM85.1882 22.7354C87.1288 23.5468 87.5803 26.0261 86.0638 27.5436C84.8238 28.7842 83.1449 28.7932 81.918 27.5657C79.6001 25.2462 82.1577 21.4685 85.1882 22.7354ZM10.3868 42.2793C5.40497 43.3718 1.36639 47.4635 0.309979 52.4885C-0.104075 54.4574 -0.102951 80.3197 0.311104 82.0769C1.18607 85.7904 4.37686 88.9471 8.04057 89.724C10.9412 90.3392 14.4816 89.9014 16.6834 88.6555C18.0888 87.8601 20.0337 85.8634 20.785 84.4443C21.2558 83.555 22.0779 82.644 24.4656 80.366L27.5396 77.433H45.0174H62.4951L65.5633 80.3604C67.9578 82.645 68.7649 83.5405 69.2399 84.4397C69.5825 85.0886 70.4215 86.1659 71.1613 86.9067C73.2909 89.0398 75.7253 89.9941 79.0348 89.9931C82.4908 89.9922 84.9417 89.0284 87.0529 86.8405C89.1102 84.708 89.9921 82.4075 89.9972 79.1594C89.9998 77.5564 89.9629 77.3788 89.5398 76.9557C88.9312 76.3465 88.0697 76.3465 87.4611 76.9557C87.0413 77.3758 87.001 77.5626 87.001 79.0927C87.001 82.8839 85.2242 85.5462 81.983 86.6119C79.7978 87.3302 76.5703 87.0397 74.7266 85.9585C73.5996 85.2975 72.2479 83.7928 71.731 82.6232C71.3703 81.807 70.6391 81.0138 67.5226 78.0564C64.8028 75.4759 63.5882 74.4449 63.1687 74.3611C62.4152 74.2103 27.6234 74.2082 26.8702 74.359C26.464 74.4402 25.2029 75.5111 22.5152 78.0572C19.3891 81.0185 18.6562 81.8122 18.2965 82.626C17.7807 83.793 16.4283 85.2981 15.3022 85.9585C12.6859 87.4929 8.32473 87.3201 5.98116 85.5897C4.7838 84.7056 3.85766 83.4021 3.40368 81.9615C3.0421 80.8148 3.02786 80.2583 3.02786 67.3248C3.02786 52.7526 3.02224 52.8411 4.06909 50.6782C5.14293 48.46 7.21058 46.5953 9.70503 45.5962L10.9941 45.0799H44.9207H78.8473L80.2531 45.5998C83.0415 46.6312 85.2523 48.8171 86.3899 51.6674L86.9048 52.9572L86.9996 62.8674L87.0947 72.7777L87.5372 73.1359C88.1533 73.635 88.9815 73.5928 89.5398 73.0339L90 72.5737V63.2976C90 52.5678 89.9535 52.1106 88.5818 49.3299C87.1895 46.5077 84.7282 44.1913 81.8115 42.9587C79.4164 41.9464 80.861 41.9838 44.8616 42.004C17.4396 42.0196 11.3498 42.0681 10.3868 42.2793ZM67.5072 46.7317C66.5872 47.0218 65.0182 48.6475 64.7361 49.603C64.2169 51.3615 64.583 52.7634 65.9076 54.0889C67.826 56.0085 70.4733 55.9676 72.2493 53.991C73.9923 52.0511 73.9375 49.7196 72.1059 47.8868C70.7868 46.5672 69.2517 46.1816 67.5072 46.7317ZM13.9847 48.4474C13.5414 48.8908 13.5245 49.0009 13.5245 51.4483V53.9887H10.9856C8.53972 53.9887 8.42969 54.0056 7.98658 54.4492C7.53017 54.9057 7.52642 54.9385 7.52642 58.49C7.52642 62.0416 7.53017 62.0744 7.98658 62.5309C8.42969 62.9744 8.53972 62.9913 10.9856 62.9913H13.5245V65.5318C13.5245 67.9791 13.5414 68.0892 13.9847 68.5326C14.4409 68.9893 14.4737 68.9931 18.0231 68.9931C21.5724 68.9931 21.6052 68.9893 22.0614 68.5326C22.5047 68.0892 22.5216 67.9791 22.5216 65.5318V62.9913H25.0605C27.5064 62.9913 27.6164 62.9744 28.0595 62.5309C28.5159 62.0744 28.5197 62.0416 28.5197 58.49C28.5197 54.9385 28.5159 54.9057 28.0595 54.4492C27.6164 54.0056 27.5064 53.9887 25.0605 53.9887H22.5216V51.4483C22.5216 49.0009 22.5047 48.8908 22.0614 48.4474C21.6052 47.9907 21.5724 47.987 18.0231 47.987C14.4737 47.987 14.4409 47.9907 13.9847 48.4474ZM34.9779 48.4474C34.6878 48.7376 34.5178 49.1221 34.5178 49.4874C34.5178 49.8528 34.6878 50.2373 34.9779 50.5274C35.4342 50.9841 35.467 50.9879 39.0163 50.9879C42.5657 50.9879 42.5985 50.9841 43.0547 50.5274C43.3449 50.2373 43.5149 49.8528 43.5149 49.4874C43.5149 49.1221 43.3449 48.7376 43.0547 48.4474C42.5985 47.9907 42.5657 47.987 39.0163 47.987C35.467 47.987 35.4342 47.9907 34.9779 48.4474ZM46.9741 48.4474C46.6839 48.7376 46.5139 49.1221 46.5139 49.4874C46.5139 49.8528 46.6839 50.2373 46.9741 50.5274C47.4303 50.9841 47.4631 50.9879 51.0125 50.9879C54.5619 50.9879 54.5947 50.9841 55.0509 50.5274C55.341 50.2373 55.511 49.8528 55.511 49.4874C55.511 49.1221 55.341 48.7376 55.0509 48.4474C54.5947 47.9907 54.5619 47.987 51.0125 47.987C47.4631 47.987 47.4303 47.9907 46.9741 48.4474ZM70.0461 49.9479C70.3362 50.238 70.5062 50.6225 70.5062 50.9879C70.5062 51.3532 70.3362 51.7377 70.0461 52.0278C69.7561 52.3182 69.3719 52.4883 69.0067 52.4883C68.6416 52.4883 68.2573 52.3182 67.9674 52.0278C67.6772 51.7377 67.5072 51.3532 67.5072 50.9879C67.5072 50.6225 67.6772 50.238 67.9674 49.9479C68.2573 49.6575 68.6416 49.4874 69.0067 49.4874C69.3719 49.4874 69.7561 49.6575 70.0461 49.9479ZM19.5226 53.5283C19.5226 55.9757 19.5394 56.0858 19.9827 56.5292C20.4258 56.9727 20.5359 56.9896 22.9818 56.9896H25.5207V58.49V59.9905H22.9818C20.5359 59.9905 20.4258 60.0073 19.9827 60.4509C19.5394 60.8943 19.5226 61.0044 19.5226 63.4518V65.9922H18.0231H16.5235V63.4518C16.5235 61.0044 16.5067 60.8943 16.0634 60.4509C15.6203 60.0073 15.5102 59.9905 13.0643 59.9905H10.5255V58.49V56.9896H13.0643C15.5102 56.9896 15.6203 56.9727 16.0634 56.5292C16.5067 56.0858 16.5235 55.9757 16.5235 53.5283V50.9879H18.0231H19.5226V53.5283ZM76.5043 54.2339C75.5844 54.524 74.0153 56.1497 73.7332 57.1051C73.214 58.8636 73.5801 60.2656 74.9047 61.591C76.8232 63.5107 79.4704 63.4698 81.2464 61.4931C82.9894 59.5533 82.9346 57.2218 81.103 55.389C79.784 54.0694 78.2488 53.6838 76.5043 54.2339ZM79.0432 57.45C79.3334 57.7402 79.5034 58.1247 79.5034 58.49C79.5034 58.8554 79.3334 59.2399 79.0432 59.53C78.7532 59.8203 78.369 59.9905 78.0038 59.9905C77.6387 59.9905 77.2545 59.8203 76.9645 59.53C76.6743 59.2399 76.5043 58.8554 76.5043 58.49C76.5043 58.1247 76.6743 57.7402 76.9645 57.45C77.2545 57.1597 77.6387 56.9896 78.0038 56.9896C78.369 56.9896 78.7532 57.1597 79.0432 57.45ZM63.0086 58.7352C62.0887 59.0253 60.5196 60.651 60.2375 61.6064C59.7183 63.3649 60.0844 64.7669 61.409 66.0923C62.3798 67.0637 63.3292 67.4926 64.5082 67.4926C66.8307 67.4926 69.0067 65.3153 69.0067 62.9913C69.0067 61.8116 68.578 60.8617 67.6073 59.8903C66.2883 58.5707 64.7532 58.1851 63.0086 58.7352ZM34.9779 60.4509C34.5215 60.9074 34.5178 60.9402 34.5178 64.4918C34.5178 69.3127 34.1984 68.9931 39.0163 68.9931C43.8343 68.9931 43.5149 69.3127 43.5149 64.4918C43.5149 59.6709 43.8343 59.9905 39.0163 59.9905C35.467 59.9905 35.4342 59.9942 34.9779 60.4509ZM46.9741 60.4509C46.5177 60.9074 46.5139 60.9402 46.5139 64.4918C46.5139 69.3127 46.1945 68.9931 51.0125 68.9931C54.5619 68.9931 54.5947 68.9893 55.0509 68.5326C55.5073 68.0761 55.511 68.0433 55.511 64.4918C55.511 59.6709 55.8304 59.9905 51.0125 59.9905C47.4631 59.9905 47.4303 59.9942 46.9741 60.4509ZM65.5475 61.9513C65.8377 62.2415 66.0077 62.626 66.0077 62.9913C66.0077 63.3567 65.8377 63.7412 65.5475 64.0313C65.2576 64.3217 64.8733 64.4918 64.5082 64.4918C64.143 64.4918 63.7588 64.3217 63.4688 64.0313C63.1786 63.7412 63.0086 63.3567 63.0086 62.9913C63.0086 62.626 63.1786 62.2415 63.4688 61.9513C63.7588 61.661 64.143 61.4909 64.5082 61.4909C64.8733 61.4909 65.2576 61.661 65.5475 61.9513ZM40.5159 64.4918V65.9922H39.0163H37.5168V64.4918V62.9913H39.0163H40.5159V64.4918ZM52.512 64.4918V65.9922H51.0125H49.513V64.4918V62.9913H51.0125H52.512V64.4918ZM72.0058 66.2373C71.0858 66.5275 69.5168 68.1532 69.2347 69.1086C68.7154 70.8671 69.0815 72.2691 70.4062 73.5945C71.3769 74.5659 72.3263 74.9948 73.5053 74.9948C75.8279 74.9948 78.0038 72.8175 78.0038 70.4935C78.0038 69.3138 77.5752 68.3638 76.6044 67.3925C75.2854 66.0728 73.7503 65.6872 72.0058 66.2373ZM74.5446 69.4535C74.8348 69.7437 75.0048 70.1281 75.0048 70.4935C75.0048 70.8589 74.8348 71.2433 74.5446 71.5335C74.2547 71.8238 73.8704 71.9939 73.5053 71.9939C73.1402 71.9939 72.7559 71.8238 72.4659 71.5335C72.1758 71.2433 72.0058 70.8589 72.0058 70.4935C72.0058 70.1281 72.1758 69.7437 72.4659 69.4535C72.7559 69.1632 73.1402 68.9931 73.5053 68.9931C73.8704 68.9931 74.2547 69.1632 74.5446 69.4535Z" fill="white"/>
</g>
<defs>
<clipPath id="clip0_2_652">
<rect width="90" height="90" fill="white"/>
</clipPath>
</defs>
</svg>
