<svg width="90" height="90" viewBox="0 0 90 90" fill="none" xmlns="http://www.w3.org/2000/svg">
<mask id="path-1-inside-1_2_618" fill="white">
<path fill-rule="evenodd" clip-rule="evenodd" d="M26.8405 29.4186V52.8372H32.2691H37.6977L38.0224 53.5585C38.201 53.9552 38.5736 54.5929 38.8505 54.9757L39.3538 55.6719L38.4311 57.545C37.9237 58.5753 37.5434 59.4508 37.5862 59.4907C37.7367 59.631 41.903 61.6842 42.0376 61.6842C42.1126 61.6842 42.5808 60.8646 43.0782 59.8628L43.9825 58.0413H44.9831H45.9836L46.8879 59.8628C47.3853 60.8646 47.8719 61.6842 47.9691 61.6842C48.1313 61.6842 52.2829 59.6567 52.461 59.4907C52.5037 59.4508 52.1233 58.5749 51.6157 57.5443L50.6927 55.6707L51.2891 54.8023C51.6169 54.3247 51.9873 53.6872 52.112 53.3855L52.3389 52.8372H57.7727H63.2066V29.4186V6H45.0236H26.8405V29.4186ZM58.0115 29.4186V47.6331L55.1974 47.6324L52.3834 47.6318L51.8017 46.505C51.1449 45.2324 49.7931 43.8876 48.5788 43.2989C46.2171 42.1536 43.8164 42.1604 41.4452 43.3194C40.3216 43.8686 38.6188 45.5975 38.0938 46.7223L37.6686 47.6331H34.8522H32.0357V29.4186V11.2041H45.0236H58.0115V29.4186ZM37.2308 19.0103V21.6124H45.0236H52.8163V19.0103V16.4083H45.0236H37.2308V19.0103ZM3.02281 17.5785C2.43957 18.9767 1.56193 21.7701 1.26494 23.1736C0.804303 25.3504 0.843094 28.7306 1.3491 30.5099C1.75952 31.953 2.62936 33.8036 3.36413 34.7962C4.79176 36.7252 7.47506 38.8932 9.99956 40.1573C10.9906 40.6536 11.0822 40.7464 11.0853 41.2604C11.0885 41.7951 11.4371 44.5994 11.7025 46.2272C11.8246 46.9753 11.8186 46.9879 11.3969 46.8818C10.0432 46.5414 7.48787 46.4071 5.74299 46.5844C3.98391 46.7633 0.946997 47.3194 0.771747 47.495C0.605328 47.6617 1.43257 51.9338 1.94083 53.5311C3.87152 59.6003 7.68131 63.0897 13.5063 64.1243C14.1254 64.2342 15.7347 64.3201 17.0823 64.3153L19.5328 64.3064L20.9494 65.9304C21.7285 66.8236 22.8345 67.9628 23.4076 68.4619L24.4492 69.3695L22.9173 70.1682C22.0748 70.6074 21.09 71.171 20.7288 71.4206C19.5633 72.2259 17.4276 74.1315 16.479 75.2129L15.5553 76.2657L16.9107 77.6609C24.0005 84.959 31.3797 85.9643 38.712 80.6311L40.1067 79.6166L42.5614 80.9666L45.0163 82.3165L47.1413 81.1673C48.31 80.5351 49.4166 79.9268 49.6005 79.8152C49.8881 79.6406 50.1292 79.753 51.3322 80.6222C53.0922 81.8939 55.4409 83.0678 57.2322 83.5709C59.0202 84.0731 62.0059 84.108 63.8127 83.6477C65.4393 83.2335 68.2146 81.858 69.6936 80.7332C71.0245 79.721 74.0442 76.8884 74.2972 76.415C74.4276 76.1708 74.1383 75.7902 72.7623 74.3962C70.8163 72.425 69.3199 71.3002 67.1357 70.1673L65.598 69.3695L66.6396 68.4619C67.2126 67.9628 68.3187 66.8236 69.0978 65.9304L70.5143 64.3064L72.9649 64.3153C74.3125 64.3201 75.9218 64.2342 76.5409 64.1243C83.5836 62.8735 87.5252 58.2713 89.0203 49.553C89.2816 48.0294 89.3121 47.5399 89.1516 47.4405C89.0366 47.3694 88.0419 47.1373 86.941 46.9248C84.6682 46.4859 81.1294 46.3973 79.4122 46.736C78.8484 46.8472 78.3548 46.906 78.3155 46.8667C78.2762 46.8271 78.364 46.0272 78.5109 45.0889C78.6575 44.1506 78.8311 42.7734 78.8962 42.0286L79.0148 40.6741L80.0724 40.1447C83.2819 38.538 86.278 35.806 87.5802 33.2986C89.3677 29.8571 89.6183 26.2517 88.3893 21.6578C87.943 19.9901 86.9871 17.3023 86.7448 17.0341C86.5497 16.8184 83.2488 17.9882 81.3292 18.9538C78.328 20.4632 76.1672 22.2683 74.7203 24.4747C72.4088 27.9998 71.9577 32.844 73.4605 38.0054C74.0534 40.0416 73.7213 43.6644 72.524 48.2187C72.059 49.9872 71.8841 50.3925 71.2877 51.081C69.5755 53.0577 68.2232 55.7121 67.441 58.6311C67.2136 59.4803 66.8107 60.4951 66.5457 60.8862C65.7408 62.0747 61.8451 65.8642 59.947 67.3054C58.5892 68.3363 57.923 68.7233 57.1763 68.9154C55.7921 69.2713 52.9507 70.6738 51.5175 71.7088C50.8508 72.1901 49.7148 73.1224 48.9928 73.7805C48.2319 74.4741 47.1222 75.2639 46.352 75.6597L45.0236 76.3425L43.6898 75.657C42.9019 75.2519 41.8209 74.4801 41.0489 73.7713C40.3301 73.1115 39.1963 72.1806 38.5296 71.7029C37.0509 70.6435 34.1773 69.2245 32.9495 68.9474C32.2631 68.7925 31.595 68.4076 30.1788 67.3508C28.2467 65.9093 24.3455 62.1323 23.5014 60.8862C23.2365 60.4951 22.8335 59.4803 22.6061 58.6311C21.8326 55.744 20.3902 52.9017 18.8086 51.1483C18.0697 50.3288 17.9513 50.0327 17.3065 47.3899C16.3267 43.3745 16.0356 39.8452 16.5468 38.1789C17.3703 35.4948 17.6712 32.3067 17.3259 29.9262C16.6346 25.158 13.8033 21.5116 8.84935 19.0093C7.35141 18.2528 3.97837 16.9287 3.5489 16.9287C3.40864 16.9287 3.17191 17.2212 3.02281 17.5785ZM8.24082 24.6606C10.4164 26.2007 11.6966 28.0421 12.1292 30.254C12.3535 31.4003 12.2738 34.2031 11.9959 34.9397C11.8444 35.3414 11.8373 35.3392 10.5255 34.4604C8.03388 32.7909 6.64175 30.8045 6.22372 28.3223C6.02838 27.1617 6.07514 25.3826 6.33524 24.0894C6.4672 23.4332 6.5356 23.4536 8.24082 24.6606ZM83.914 25.9492C84.1748 29.566 82.7733 32.2817 79.5217 34.4604C78.2099 35.3392 78.2028 35.3414 78.0513 34.9397C77.7733 34.2031 77.6937 31.4003 77.9179 30.254C78.3744 27.9205 79.7664 26.0199 82.2256 24.3721L83.5441 23.4888L83.6759 23.9818C83.7485 24.2528 83.8556 25.1382 83.914 25.9492ZM37.2308 29.4186V32.0207H45.0236H52.8163V29.4186V26.8165H45.0236H37.2308V29.4186ZM46.2008 47.9621C46.952 48.346 47.6212 49.4167 47.6212 50.2351C47.6212 51.0334 46.9958 52.0415 46.2351 52.4698C45.8761 52.6719 45.331 52.8372 45.0236 52.8372C43.7478 52.8372 42.4173 51.4886 42.4333 50.2115C42.4437 49.3738 42.9599 48.5186 43.7409 48.0451C44.5597 47.5488 45.3401 47.5224 46.2008 47.9621ZM9.12019 51.7995C11.8624 52.144 13.7595 53.1106 15.157 54.8757C15.9529 55.8807 17.0165 57.8816 17.2409 58.7956L17.3621 59.2896L15.997 59.1703C11.6547 58.7909 9.39675 57.3811 7.73482 54.0111C7.2986 53.1269 6.89407 52.228 6.83553 52.0132C6.70877 51.5474 6.94082 51.5257 9.12019 51.7995ZM83.2116 52.0132C83.1531 52.228 82.7486 53.1269 82.3123 54.0111C80.6504 57.3811 78.3924 58.7909 74.0501 59.1703L72.685 59.2896L72.8052 58.7956C73.0191 57.9168 74.0955 55.8988 74.8931 54.8815C76.5144 52.8141 79.0413 51.7487 82.5702 51.6449C83.2658 51.6245 83.3105 51.6501 83.2116 52.0132ZM31.4185 73.9183C32.4629 74.1908 34.7337 75.3012 35.4991 75.9137C35.9887 76.3054 36.0966 76.1803 34.3124 77.2898C31.0574 79.3143 27.7926 79.2889 24.4388 77.2137C22.8212 76.2128 22.9113 76.3229 23.3863 75.9257C24.0743 75.3506 26.3816 74.1969 27.3836 73.9268C28.6122 73.5958 30.1698 73.5925 31.4185 73.9183ZM62.5894 73.9183C63.6338 74.1908 65.9046 75.3012 66.6701 75.9137C67.1596 76.3054 67.2675 76.1803 65.4833 77.2898C62.2779 79.2834 58.9402 79.2834 55.7348 77.2898C53.9506 76.1803 54.0585 76.3054 54.548 75.9137C55.278 75.3296 57.5737 74.1911 58.5545 73.9268C59.7832 73.5958 61.3407 73.5925 62.5894 73.9183Z"/>
</mask>
<path fill-rule="evenodd" clip-rule="evenodd" d="M26.8405 29.4186V52.8372H32.2691H37.6977L38.0224 53.5585C38.201 53.9552 38.5736 54.5929 38.8505 54.9757L39.3538 55.6719L38.4311 57.545C37.9237 58.5753 37.5434 59.4508 37.5862 59.4907C37.7367 59.631 41.903 61.6842 42.0376 61.6842C42.1126 61.6842 42.5808 60.8646 43.0782 59.8628L43.9825 58.0413H44.9831H45.9836L46.8879 59.8628C47.3853 60.8646 47.8719 61.6842 47.9691 61.6842C48.1313 61.6842 52.2829 59.6567 52.461 59.4907C52.5037 59.4508 52.1233 58.5749 51.6157 57.5443L50.6927 55.6707L51.2891 54.8023C51.6169 54.3247 51.9873 53.6872 52.112 53.3855L52.3389 52.8372H57.7727H63.2066V29.4186V6H45.0236H26.8405V29.4186ZM58.0115 29.4186V47.6331L55.1974 47.6324L52.3834 47.6318L51.8017 46.505C51.1449 45.2324 49.7931 43.8876 48.5788 43.2989C46.2171 42.1536 43.8164 42.1604 41.4452 43.3194C40.3216 43.8686 38.6188 45.5975 38.0938 46.7223L37.6686 47.6331H34.8522H32.0357V29.4186V11.2041H45.0236H58.0115V29.4186ZM37.2308 19.0103V21.6124H45.0236H52.8163V19.0103V16.4083H45.0236H37.2308V19.0103ZM3.02281 17.5785C2.43957 18.9767 1.56193 21.7701 1.26494 23.1736C0.804303 25.3504 0.843094 28.7306 1.3491 30.5099C1.75952 31.953 2.62936 33.8036 3.36413 34.7962C4.79176 36.7252 7.47506 38.8932 9.99956 40.1573C10.9906 40.6536 11.0822 40.7464 11.0853 41.2604C11.0885 41.7951 11.4371 44.5994 11.7025 46.2272C11.8246 46.9753 11.8186 46.9879 11.3969 46.8818C10.0432 46.5414 7.48787 46.4071 5.74299 46.5844C3.98391 46.7633 0.946997 47.3194 0.771747 47.495C0.605328 47.6617 1.43257 51.9338 1.94083 53.5311C3.87152 59.6003 7.68131 63.0897 13.5063 64.1243C14.1254 64.2342 15.7347 64.3201 17.0823 64.3153L19.5328 64.3064L20.9494 65.9304C21.7285 66.8236 22.8345 67.9628 23.4076 68.4619L24.4492 69.3695L22.9173 70.1682C22.0748 70.6074 21.09 71.171 20.7288 71.4206C19.5633 72.2259 17.4276 74.1315 16.479 75.2129L15.5553 76.2657L16.9107 77.6609C24.0005 84.959 31.3797 85.9643 38.712 80.6311L40.1067 79.6166L42.5614 80.9666L45.0163 82.3165L47.1413 81.1673C48.31 80.5351 49.4166 79.9268 49.6005 79.8152C49.8881 79.6406 50.1292 79.753 51.3322 80.6222C53.0922 81.8939 55.4409 83.0678 57.2322 83.5709C59.0202 84.0731 62.0059 84.108 63.8127 83.6477C65.4393 83.2335 68.2146 81.858 69.6936 80.7332C71.0245 79.721 74.0442 76.8884 74.2972 76.415C74.4276 76.1708 74.1383 75.7902 72.7623 74.3962C70.8163 72.425 69.3199 71.3002 67.1357 70.1673L65.598 69.3695L66.6396 68.4619C67.2126 67.9628 68.3187 66.8236 69.0978 65.9304L70.5143 64.3064L72.9649 64.3153C74.3125 64.3201 75.9218 64.2342 76.5409 64.1243C83.5836 62.8735 87.5252 58.2713 89.0203 49.553C89.2816 48.0294 89.3121 47.5399 89.1516 47.4405C89.0366 47.3694 88.0419 47.1373 86.941 46.9248C84.6682 46.4859 81.1294 46.3973 79.4122 46.736C78.8484 46.8472 78.3548 46.906 78.3155 46.8667C78.2762 46.8271 78.364 46.0272 78.5109 45.0889C78.6575 44.1506 78.8311 42.7734 78.8962 42.0286L79.0148 40.6741L80.0724 40.1447C83.2819 38.538 86.278 35.806 87.5802 33.2986C89.3677 29.8571 89.6183 26.2517 88.3893 21.6578C87.943 19.9901 86.9871 17.3023 86.7448 17.0341C86.5497 16.8184 83.2488 17.9882 81.3292 18.9538C78.328 20.4632 76.1672 22.2683 74.7203 24.4747C72.4088 27.9998 71.9577 32.844 73.4605 38.0054C74.0534 40.0416 73.7213 43.6644 72.524 48.2187C72.059 49.9872 71.8841 50.3925 71.2877 51.081C69.5755 53.0577 68.2232 55.7121 67.441 58.6311C67.2136 59.4803 66.8107 60.4951 66.5457 60.8862C65.7408 62.0747 61.8451 65.8642 59.947 67.3054C58.5892 68.3363 57.923 68.7233 57.1763 68.9154C55.7921 69.2713 52.9507 70.6738 51.5175 71.7088C50.8508 72.1901 49.7148 73.1224 48.9928 73.7805C48.2319 74.4741 47.1222 75.2639 46.352 75.6597L45.0236 76.3425L43.6898 75.657C42.9019 75.2519 41.8209 74.4801 41.0489 73.7713C40.3301 73.1115 39.1963 72.1806 38.5296 71.7029C37.0509 70.6435 34.1773 69.2245 32.9495 68.9474C32.2631 68.7925 31.595 68.4076 30.1788 67.3508C28.2467 65.9093 24.3455 62.1323 23.5014 60.8862C23.2365 60.4951 22.8335 59.4803 22.6061 58.6311C21.8326 55.744 20.3902 52.9017 18.8086 51.1483C18.0697 50.3288 17.9513 50.0327 17.3065 47.3899C16.3267 43.3745 16.0356 39.8452 16.5468 38.1789C17.3703 35.4948 17.6712 32.3067 17.3259 29.9262C16.6346 25.158 13.8033 21.5116 8.84935 19.0093C7.35141 18.2528 3.97837 16.9287 3.5489 16.9287C3.40864 16.9287 3.17191 17.2212 3.02281 17.5785ZM8.24082 24.6606C10.4164 26.2007 11.6966 28.0421 12.1292 30.254C12.3535 31.4003 12.2738 34.2031 11.9959 34.9397C11.8444 35.3414 11.8373 35.3392 10.5255 34.4604C8.03388 32.7909 6.64175 30.8045 6.22372 28.3223C6.02838 27.1617 6.07514 25.3826 6.33524 24.0894C6.4672 23.4332 6.5356 23.4536 8.24082 24.6606ZM83.914 25.9492C84.1748 29.566 82.7733 32.2817 79.5217 34.4604C78.2099 35.3392 78.2028 35.3414 78.0513 34.9397C77.7733 34.2031 77.6937 31.4003 77.9179 30.254C78.3744 27.9205 79.7664 26.0199 82.2256 24.3721L83.5441 23.4888L83.6759 23.9818C83.7485 24.2528 83.8556 25.1382 83.914 25.9492ZM37.2308 29.4186V32.0207H45.0236H52.8163V29.4186V26.8165H45.0236H37.2308V29.4186ZM46.2008 47.9621C46.952 48.346 47.6212 49.4167 47.6212 50.2351C47.6212 51.0334 46.9958 52.0415 46.2351 52.4698C45.8761 52.6719 45.331 52.8372 45.0236 52.8372C43.7478 52.8372 42.4173 51.4886 42.4333 50.2115C42.4437 49.3738 42.9599 48.5186 43.7409 48.0451C44.5597 47.5488 45.3401 47.5224 46.2008 47.9621ZM9.12019 51.7995C11.8624 52.144 13.7595 53.1106 15.157 54.8757C15.9529 55.8807 17.0165 57.8816 17.2409 58.7956L17.3621 59.2896L15.997 59.1703C11.6547 58.7909 9.39675 57.3811 7.73482 54.0111C7.2986 53.1269 6.89407 52.228 6.83553 52.0132C6.70877 51.5474 6.94082 51.5257 9.12019 51.7995ZM83.2116 52.0132C83.1531 52.228 82.7486 53.1269 82.3123 54.0111C80.6504 57.3811 78.3924 58.7909 74.0501 59.1703L72.685 59.2896L72.8052 58.7956C73.0191 57.9168 74.0955 55.8988 74.8931 54.8815C76.5144 52.8141 79.0413 51.7487 82.5702 51.6449C83.2658 51.6245 83.3105 51.6501 83.2116 52.0132ZM31.4185 73.9183C32.4629 74.1908 34.7337 75.3012 35.4991 75.9137C35.9887 76.3054 36.0966 76.1803 34.3124 77.2898C31.0574 79.3143 27.7926 79.2889 24.4388 77.2137C22.8212 76.2128 22.9113 76.3229 23.3863 75.9257C24.0743 75.3506 26.3816 74.1969 27.3836 73.9268C28.6122 73.5958 30.1698 73.5925 31.4185 73.9183ZM62.5894 73.9183C63.6338 74.1908 65.9046 75.3012 66.6701 75.9137C67.1596 76.3054 67.2675 76.1803 65.4833 77.2898C62.2779 79.2834 58.9402 79.2834 55.7348 77.2898C53.9506 76.1803 54.0585 76.3054 54.548 75.9137C55.278 75.3296 57.5737 74.1911 58.5545 73.9268C59.7832 73.5958 61.3407 73.5925 62.5894 73.9183Z" fill="white" stroke="#0D0D0D" stroke-width="2" mask="url(#path-1-inside-1_2_618)"/>
</svg>
