<svg width="90" height="90" viewBox="0 0 90 90" fill="none" xmlns="http://www.w3.org/2000/svg">
<path d="M40.7394 15.4269C41.7127 10.7922 45.361 7.39152 49.8761 6.91024C50.1448 6.88158 50.4951 6.85442 50.6546 6.84986L50.9446 6.84155V8.95455L50.5325 8.99295C48.2139 9.20906 46.4576 10.0381 44.9679 11.6198C43.827 12.831 43.1341 14.1713 42.7788 15.8541C42.6262 16.5762 42.6289 18.4645 42.7834 19.19C43.1494 20.9083 43.8887 22.3013 45.079 23.5151C46.1009 24.5573 47.244 25.2624 48.573 25.6703C49.2032 25.8638 50.0582 26.0098 50.563 26.0101L50.9446 26.0103V28.1659L50.2221 28.1217C48.4365 28.0124 46.7334 27.4149 45.1441 26.3401C44.1963 25.6991 42.9729 24.4536 42.3456 23.4909C41.5647 22.2925 41.0435 21.0241 40.7384 19.5791C40.6182 19.0099 40.5996 18.7384 40.5976 17.5186C40.5954 16.2717 40.6114 16.0366 40.7394 15.4269Z" fill="white"/>
<path d="M46.7061 12.8402C47.7787 11.8141 49.1165 11.2324 50.6393 11.1297C50.7905 11.1196 51.0103 11.1188 51.1278 11.1281C51.9804 11.1954 52.2239 11.2335 52.6964 11.3736C55.1832 12.1105 56.9714 14.3599 57.198 17.0362L57.239 17.5216L55.1272 17.4874L55.0881 17.0403C55.0041 16.0793 54.6183 15.2751 53.8784 14.5185C53.0303 13.6511 52.1397 13.2728 50.946 13.2728C48.1345 13.2728 46.1485 16.0536 46.9998 18.7986C47.5003 20.4126 48.9107 21.5891 50.5295 21.7429L50.9446 21.7824V23.906L50.4347 23.8692C49.0177 23.7669 47.5927 23.0884 46.5454 22.0174C44.0436 19.4591 44.1161 15.3177 46.7061 12.8402Z" fill="white"/>
<path d="M39.59 26.8555C37.6133 24.2893 36.589 21.5026 36.3815 18.1259L36.344 17.5156L38.4581 17.5499L38.4983 18.3616C38.5736 19.8826 39.0114 21.5818 39.7096 23.0624C41.1628 26.1439 43.7648 28.5009 46.9224 29.596C48.1159 30.0099 48.7962 30.1411 50.5325 30.2926L50.9446 30.3286V32.4576L50.2577 32.4147C46.5629 32.1833 43.2622 30.6923 40.7115 28.1026C40.3053 27.6902 39.8006 27.129 39.59 26.8555Z" fill="white"/>
<path d="M54.3034 19.0004C54.2976 18.7934 54.3538 18.583 54.4283 18.5328C54.603 18.415 62.4758 18.4406 62.4758 18.559C62.4758 18.6082 61.7557 19.3365 60.8757 20.1776L59.2757 21.7067H52.9199L52.8561 24.6778L52.0023 24.6893V20.7746H58.8508L59.5249 20.1746C59.8957 19.8446 60.1989 19.5316 60.1989 19.479C60.1989 19.4265 59.9813 19.3892 59.7151 19.396C59.4489 19.4029 58.1249 19.4013 56.7725 19.3926L54.3138 19.3765L54.3034 19.0004Z" fill="white"/>
<path d="M54.393 24.7572V22.7554H55.3037V23.8261L57.3603 23.7801C58.4913 23.7548 59.4385 23.7701 59.465 23.814C59.4916 23.8581 58.7939 24.5816 57.9146 25.4219L56.3158 26.9499H52.9131V31.1624L54.3856 29.8044L54.393 27.9985H55.3037V30.1808L53.8523 31.5668C53.054 32.329 52.3112 33.0242 52.2016 33.1114C52.0128 33.2619 52.0023 33.0802 52.0023 29.6439V26.0177H55.8909L56.566 25.4168C56.9373 25.0863 57.2107 24.7848 57.1736 24.7468C57.1365 24.709 56.4957 24.6957 55.7495 24.7176L54.393 24.7572Z" fill="white"/>
<path d="M68.9569 19.9943C68.9569 31.0369 60.2054 39.9886 49.4099 39.9886C38.6144 39.9886 29.8629 31.0369 29.8629 19.9943C29.8629 8.95176 38.6144 0 49.4099 0C60.2054 0 68.9569 8.95176 68.9569 19.9943ZM31.8176 19.9943C31.8176 29.9326 39.694 37.9892 49.4099 37.9892C59.1258 37.9892 67.0022 29.9326 67.0022 19.9943C67.0022 10.056 59.1258 1.99943 49.4099 1.99943C39.694 1.99943 31.8176 10.056 31.8176 19.9943Z" fill="white"/>
<path fill-rule="evenodd" clip-rule="evenodd" d="M72.1924 29.6437C69.8508 30.5305 68.5359 33.3934 69.3598 35.8111L69.5775 36.4499L56.6532 49.3988L55.9264 49.1366C54.3928 48.5832 52.4852 49.0031 51.3086 50.1531L50.7988 50.6516L39.9314 46.2102L39.7205 45.0498C38.8771 40.4107 32.9932 39.4383 30.9153 43.5944C30.3871 44.651 30.2029 46.1746 30.4914 47.1038C30.595 47.4377 29.7199 48.2075 24.3086 52.5445L18.0053 57.5963L16.8473 57.1953C14.1231 56.2521 11.451 57.6221 10.6727 60.3612C9.60489 64.1183 13.0544 67.4566 16.7183 66.2119C18.7771 65.5124 19.9807 63.5652 19.8154 61.2019L19.7232 59.8829L25.8405 54.9946C29.205 52.3059 32.062 50.0426 32.1893 49.9649C32.3164 49.8872 32.7831 49.9921 33.2261 50.1977C34.7645 50.9118 36.732 50.6173 38.0332 49.4779L38.7893 48.8159L49.6245 53.244L49.8386 54.423C50.6463 58.865 56.1783 59.9947 58.4795 56.1874C58.9218 55.4559 59.0498 55.002 59.1072 53.963C59.1521 53.15 59.087 52.4302 58.9347 52.0542L58.6903 51.4506L71.6093 38.4886L72.3445 38.7539C73.9175 39.3217 75.5656 38.9821 76.8499 37.8257C78.0568 36.7389 78.4761 35.8012 78.4769 34.1865C78.4778 32.2545 77.5903 30.7657 75.9102 29.8806C74.9608 29.3803 73.1866 29.2673 72.1924 29.6437ZM74.7042 32.4827C75.3757 32.8381 75.6269 33.3001 75.6269 34.1806C75.6269 35.0816 75.1883 35.7284 74.3965 35.9957C72.6832 36.5741 71.2123 34.4964 72.3175 33.0592C72.9793 32.1986 73.7947 32.0017 74.7042 32.4827ZM36.394 44.4818C36.7811 44.8491 36.9036 45.1421 36.9036 45.7004C36.9036 46.6328 36.6623 47.0905 35.9809 47.451C35.1095 47.9119 34.529 47.8099 33.8042 47.0685C33.2167 46.4676 33.1607 46.3222 33.2511 45.6323C33.3712 44.7175 33.7951 44.1861 34.5726 43.9767C35.3285 43.7728 35.7785 43.8977 36.394 44.4818ZM67.0783 47.91L66.6409 48.2722V89.2755L67.0783 89.6376C67.4898 89.9786 67.8885 90 73.803 90H80.0905L81 89.0696V68.8079C81 48.5968 80.9991 48.5451 80.6159 48.047L80.232 47.5476H73.8738C67.8896 47.5476 67.49 47.5688 67.0783 47.91ZM78.2208 87.1572H69.5127V50.3904H78.2208V87.1572ZM55.8484 52.4776C56.5141 53.2251 56.5294 54.1327 55.8897 54.9105C55.3025 55.6242 54.559 55.8042 53.7054 55.4394C52.925 55.1058 52.6508 54.644 52.6564 53.6721C52.6666 51.8823 54.6552 51.1383 55.8484 52.4776ZM29.0021 59.429C28.7835 59.4728 28.45 59.6833 28.261 59.8967C27.934 60.2665 27.9149 60.9605 27.8653 74.3372C27.8365 82.0658 27.8595 88.5832 27.9162 88.8202C27.9731 89.0575 28.1841 89.4199 28.3853 89.6257C28.7355 89.9839 29.0257 90 35.1112 90H41.4709L42.2766 89.1227V74.7664C42.2766 65.7642 42.209 60.2807 42.0953 60.0633C41.739 59.3824 40.9273 59.2969 35.0695 59.3236C31.951 59.3378 29.2208 59.3852 29.0021 59.429ZM16.4487 60.3212C17.1491 61.0376 17.2449 61.6411 16.7989 62.5235C16.4456 63.2222 15.9989 63.4673 15.078 63.4673C13.2875 63.4673 12.6322 61.0071 14.1676 60.0495C15.0614 59.4921 15.7141 59.5698 16.4487 60.3212ZM39.4975 87.1572H30.7893V62.3301H39.4975V87.1572ZM48.0787 67.4485C47.8561 67.5402 47.5851 67.7851 47.4765 67.9926C47.344 68.246 47.2792 71.6913 47.2792 78.4886V88.6072L47.7079 89.0194C48.1309 89.4258 48.2232 89.4314 54.4502 89.4314C60.3895 89.4314 60.7894 89.41 61.2009 89.0693L61.6383 88.7071L61.7404 68.3753L60.6478 67.2577L54.5657 67.2696C51.2204 67.2762 48.3014 67.3568 48.0787 67.4485ZM58.7665 86.5886H50.0584V70.29H58.7665V86.5886ZM8 76.1478V89.0696L8.90954 90H15.197C21.1102 90 21.5104 89.9784 21.9217 89.6378L22.3591 89.2758L22.4129 82.9673C22.4699 76.2481 22.4232 75.8167 21.5967 75.4316C21.2851 75.2863 19.1729 75.2175 15.0234 75.2175H8.90954L8 76.1478ZM19.4873 87.1572H10.7792V78.0603H19.4873V87.1572Z" fill="white"/>
</svg>
