<svg width="90" height="90" viewBox="0 0 90 90" fill="none" xmlns="http://www.w3.org/2000/svg">
<g clip-path="url(#clip0_2_668)">
<path fill-rule="evenodd" clip-rule="evenodd" d="M10.1059 0.179871C9.94044 0.275045 7.59894 3.61226 4.90258 7.59568L0 14.8383L0.0674427 18.2406C0.134304 21.6024 0.142444 21.6583 0.74846 22.9171C1.5787 24.6419 2.69829 25.7864 4.35064 26.6001C5.09852 26.9682 5.82953 27.2696 5.97508 27.2696C6.19756 27.2696 6.23981 31.4735 6.23981 53.599V79.9287L7.19118 80.865H27.6265L35.0791 85.1087C39.1782 87.4429 42.8909 89.498 43.3298 89.676C44.2736 90.0584 45.4611 90.1062 46.3762 89.7986C46.7384 89.6769 50.4884 87.617 54.7094 85.2211L62.3839 80.865H82.8088L83.7602 79.9287V53.599C83.7602 31.4735 83.8024 27.2696 84.0249 27.2696C84.1705 27.2696 84.9015 26.9682 85.6494 26.6001C87.3017 25.7864 88.4213 24.6419 89.2515 22.9171C89.8576 21.6583 89.8657 21.6024 89.9326 18.2406L90 14.8383L85.0955 7.59282C82.398 3.60788 80.0404 0.267988 79.8565 0.171288C79.4125 -0.0627391 10.512 -0.0541562 10.1059 0.179871ZM85.5052 13.7277H4.49483L11.7288 3.04675H78.2712L85.5052 13.7277ZM12.4414 18.6169C12.4414 19.6276 12.3354 20.8076 12.2058 21.2394C11.8912 22.2871 10.2858 23.8671 9.22124 24.1767C7.40417 24.705 5.9555 24.3325 4.58591 22.9846C3.38822 21.8057 3.13899 21.0537 3.13899 18.6169V16.7794H12.4414V18.6169ZM24.8447 18.6169C24.8447 19.6276 24.7387 20.8076 24.609 21.2394C24.2945 22.2871 22.6891 23.8671 21.6245 24.1767C19.8074 24.705 18.3588 24.3325 16.9892 22.9846C15.7915 21.8057 15.5423 21.0537 15.5423 18.6169V16.7794H24.8447V18.6169ZM37.248 18.6169C37.248 19.6276 37.142 20.8076 37.0123 21.2394C36.6978 22.2871 35.0923 23.8671 34.0278 24.1767C32.2107 24.705 30.762 24.3325 29.3924 22.9846C28.1947 21.8057 27.9455 21.0537 27.9455 18.6169V16.7794H37.248V18.6169ZM49.6512 18.6169C49.6512 19.6276 49.5452 20.8076 49.4156 21.2394C49.101 22.2871 47.4956 23.8671 46.431 24.1767C44.614 24.705 43.1653 24.3325 41.7957 22.9846C40.598 21.8057 40.3488 21.0537 40.3488 18.6169V16.7794H49.6512V18.6169ZM62.0545 18.6169C62.0545 19.6276 61.9485 20.8076 61.8188 21.2394C61.5043 22.2871 59.8988 23.8671 58.8343 24.1767C57.0172 24.705 55.5686 24.3325 54.199 22.9846C53.0013 21.8057 52.752 21.0537 52.752 18.6169V16.7794H62.0545V18.6169ZM74.4577 18.6169C74.4577 19.6276 74.3517 20.8076 74.2221 21.2394C73.9075 22.2871 72.3021 23.8671 71.2375 24.1767C69.4205 24.705 67.9718 24.3325 66.6022 22.9846C65.4045 21.8057 65.1553 21.0537 65.1553 18.6169V16.7794H74.4577V18.6169ZM86.861 18.6169C86.861 19.6276 86.755 20.8076 86.6253 21.2394C86.3108 22.2871 84.7054 23.8671 83.6408 24.1767C81.8237 24.705 80.3751 24.3325 79.0055 22.9846C77.8078 21.8057 77.5586 21.0537 77.5586 18.6169V16.7794H86.861V18.6169ZM14.8568 25.2896C15.3705 25.7741 16.3673 26.4393 17.0715 26.7678C18.227 27.3066 18.5326 27.3649 20.1935 27.3649C21.8544 27.3649 22.16 27.3066 23.3154 26.7678C24.0197 26.4393 25.0009 25.7887 25.4957 25.3222L26.3951 24.474L27.2945 25.3222C27.7893 25.7887 28.7705 26.4393 29.4748 26.7678C30.6302 27.3066 30.9359 27.3649 32.5967 27.3649C34.2576 27.3649 34.5632 27.3066 35.7187 26.7678C36.423 26.4393 37.4042 25.7887 37.8989 25.3222L38.7984 24.474L39.6978 25.3222C40.1926 25.7887 41.1738 26.4393 41.8781 26.7678C43.0335 27.3066 43.3391 27.3649 45 27.3649C46.6609 27.3649 46.9665 27.3066 48.1219 26.7678C48.8262 26.4393 49.8074 25.7887 50.3022 25.3222L51.2016 24.474L52.1011 25.3222C52.5958 25.7887 53.577 26.4393 54.2813 26.7678C55.4368 27.3066 55.7424 27.3649 57.4033 27.3649C59.0641 27.3649 59.3698 27.3066 60.5252 26.7678C61.2295 26.4393 62.2107 25.7887 62.7055 25.3222L63.6049 24.474L64.5043 25.3222C64.9991 25.7887 65.9803 26.4393 66.6846 26.7678C67.84 27.3066 68.1457 27.3649 69.8065 27.3649C71.4674 27.3649 71.773 27.3066 72.9285 26.7678C73.6327 26.4393 74.614 25.7887 75.1087 25.3222L76.0082 24.474L76.8803 25.2965C77.7609 26.1269 79.1468 26.9184 80.1264 27.1506L80.6594 27.2768V77.8133H67.8084L68.9842 77.0654C69.79 76.5527 70.3329 76.0278 70.71 75.3965L71.26 74.4755V47.5824L70.7226 46.6825C70.4269 46.1876 69.8164 45.5357 69.366 45.2339C67.8991 44.2515 47.0539 32.487 46.3762 32.2593C45.5337 31.9762 44.4618 31.977 43.6238 32.2616C42.9682 32.4842 22.7524 43.8861 20.8348 45.1147C20.2012 45.5208 19.6274 46.0968 19.2844 46.6709L18.74 47.5824V74.4755L19.29 75.3965C19.6671 76.0278 20.21 76.5527 21.0158 77.0654L22.1916 77.8133H9.34063V27.2768L9.87358 27.1506C10.879 26.9123 12.2314 26.1265 13.0628 25.2974C13.5205 24.8412 13.9011 24.4544 13.9087 24.4382C13.9163 24.422 14.3428 24.8049 14.8568 25.2896ZM56.4003 41.3108C62.4413 44.7323 67.5801 47.7411 67.8201 47.9969L68.2561 48.4621V73.5958L67.8201 74.061C67.2336 74.6864 45.5266 86.9683 45.0078 86.9683C44.4928 86.9683 22.7712 74.683 22.1799 74.0574L21.7439 73.5958V61.0394C21.7439 49.3612 21.7675 48.4548 22.083 48.081C22.5637 47.5113 44.4202 35.1124 44.9661 35.0998C45.2182 35.0941 50.2524 37.8286 56.4003 41.3108Z" fill="white"/>
<path fill-rule="evenodd" clip-rule="evenodd" d="M28.6279 51.6936H60.9526L63.3333 49.0179H25.8333L28.6279 51.6936ZM32.135 55.5318L39.5429 55.5586L39.7289 59.7485L42.2602 56.8441C43.6524 55.2464 45.051 53.6347 45.3684 53.2625L45.9449 52.5855H29.3936L32.135 55.5318ZM46.69 56.877C46.0333 57.6367 45.5857 58.0908 45.281 58.6365C45.0784 58.9993 44.939 59.4026 44.8432 59.9632C44.6006 61.384 44.6387 63.8151 44.6403 69.1578C44.6419 74.4722 44.7475 78.9642 44.8754 79.1399C45.0032 79.3156 45.998 80.0232 47.0855 80.7117L49.0631 81.9643V58.7521L57.7645 58.7518L60.4891 55.779H47.6392L46.69 56.877ZM39.8732 61.4705L39.9593 67.2062L40.0453 76.3477L41.8612 77.52C42.8598 78.1648 43.7518 78.6221 43.8436 78.5362C43.935 78.45 43.9723 70.921 43.9261 65.9676L43.8423 56.9616L39.8732 61.4705Z" fill="white"/>
</g>
<defs>
<clipPath id="clip0_2_668">
<rect width="90" height="90" fill="white"/>
</clipPath>
</defs>
</svg>
