<svg width="90" height="90" viewBox="0 0 90 90" fill="none" xmlns="http://www.w3.org/2000/svg">
<g clip-path="url(#clip0_2_361)">
<path fill-rule="evenodd" clip-rule="evenodd" d="M41.3159 0.18365C36.0823 0.794215 31.1192 2.64635 26.5181 5.70611C23.5037 7.71088 22.965 8.49621 23.8407 9.61046C24.5001 10.4496 25.2925 10.2992 27.0011 9.01058C30.5636 6.32417 34.6389 4.51479 39.3789 3.51531C42.2477 2.91038 47.5784 2.90531 50.5702 3.50463C62.7605 5.94688 72.021 15.2152 74.4527 27.4074C75.0109 30.2058 75.0468 35.518 74.5259 38.2325C72.1345 50.6985 62.7122 60.1287 50.2464 62.5327C47.5556 63.0515 42.0354 63.009 39.3789 62.4487C35.8121 61.6965 32.5662 60.4628 29.8229 58.8164C22.2975 54.3002 17.2674 47.1622 15.546 38.5566C14.9472 35.5624 14.9522 30.2275 15.5567 27.3564C16.5554 22.6127 18.3633 18.5341 21.0476 14.9688C22.3352 13.2588 22.4855 12.4658 21.647 11.8059C20.5462 10.9392 19.6283 11.5811 17.6084 14.6296C14.9046 18.7108 13.0583 23.5434 12.3702 28.3409L12.1349 29.9817H10.2737C9.24995 29.9817 8.06539 30.0842 7.64118 30.2097C6.61195 30.514 5.05977 32.0674 4.75567 33.0975C4.58291 33.6829 4.52782 38.8347 4.52782 54.4279V74.9864H2.73937C1.07439 74.9864 0.917931 75.0192 0.475361 75.4622L0 75.9381L0.0622072 80.1138L0.124602 84.2896L0.824433 85.706C1.66723 87.4118 2.75286 88.4753 4.4941 89.3007L5.74574 89.8942L29.4064 89.9447L53.0669 89.9949L53.5304 89.5312C54.1424 88.9188 54.1439 88.0584 53.5338 87.448L53.074 86.9877H29.9936C12.4201 86.9877 6.72944 86.9333 6.14222 86.7597C5.11299 86.4553 3.5608 84.9019 3.2567 83.8718C3.12666 83.4314 3.02886 82.0027 3.02886 80.5434V77.9867H18.0185H33.0082V79.7766C33.0082 81.4272 33.044 81.6025 33.4682 82.0268L33.928 82.4872H45H56.072L56.5318 82.0268C56.956 81.6025 56.9918 81.4272 56.9918 79.7766V77.9867H71.9815H86.9711V80.5434C86.9711 82.0027 86.8733 83.4314 86.7433 83.8718C86.4392 84.9019 84.887 86.4553 83.8578 86.7597C83.2857 86.9288 79.8344 86.9877 70.4992 86.9877H57.9116L57.4518 87.448C56.8407 88.0595 56.8432 88.9188 57.4577 89.5338L57.9237 90L71.089 89.9471L84.2543 89.8942L85.5059 89.3007C87.2471 88.4753 88.3328 87.4118 89.1756 85.706L89.8754 84.2896L89.9378 80.1138L90 75.9381L89.5246 75.4622L89.0493 74.9864H71.9815H54.9136L54.4538 75.4468C54.0296 75.8711 53.9938 76.0465 53.9938 77.697V79.4869H45H36.0062V77.697C36.0062 76.0465 35.9704 75.8711 35.5462 75.4468L35.0864 74.9864H21.306H7.52576V54.4446V33.9025L7.98576 33.4423C8.40978 33.0178 8.58497 32.982 10.2342 32.982H12.0227V33.8331C12.0227 35.2172 12.3957 38.2023 12.795 40.014C13.6477 43.8825 15.4844 48.1443 17.7143 51.4291C18.4057 52.4475 18.9466 53.3029 18.9164 53.3299C18.8863 53.3569 17.7482 53.936 16.3871 54.6165C15.026 55.2972 13.8244 56.0184 13.7171 56.2194C13.6095 56.4205 13.5216 57.4241 13.5216 58.4496V60.3143L12.9532 60.55C11.6936 61.0721 10.5237 62.9673 10.5237 64.4853C10.5237 66.8089 12.6989 68.9858 15.0206 68.9858C17.3423 68.9858 19.5175 66.8089 19.5175 64.4853C19.5175 62.9673 18.3476 61.0721 17.0881 60.55C16.5391 60.3226 16.5196 60.2732 16.5196 59.1196V57.9249L18.7834 56.7893L21.0474 55.6535L22.4088 56.9478C23.1576 57.6596 24.2468 58.6022 24.8291 59.0422L25.8881 59.8423V61.5786V63.3146L25.3197 63.5503C24.5477 63.8704 23.3796 65.238 23.1105 66.1368C22.5975 67.8505 22.9734 69.2691 24.2891 70.5861C26.0749 72.3733 28.4195 72.4708 30.2764 70.8351C31.8548 69.4446 32.2826 67.3073 31.3489 65.476C30.938 64.6698 29.8943 63.6552 29.2732 63.4579C28.9683 63.3611 28.8861 63.1781 28.8861 62.5975C28.8861 62.1919 28.9303 61.86 28.9844 61.86C29.0386 61.86 29.6897 62.1659 30.4315 62.5398C34.0017 64.339 37.7618 65.3914 42.4236 65.8958L43.501 66.0125V66.9139C43.501 67.7408 43.4542 67.8346 42.9325 68.0508C41.673 68.5729 40.5031 70.4681 40.5031 71.9861C40.5031 74.3097 42.6783 76.4866 45 76.4866C47.3217 76.4866 49.4969 74.3097 49.4969 71.9861C49.4969 70.4681 48.327 68.5729 47.0675 68.0508C46.5458 67.8346 46.499 67.7408 46.499 66.9139V66.0125L47.5764 65.8958C52.323 65.3822 55.9773 64.3473 59.7538 62.447C60.6003 62.0211 61.3371 61.6725 61.3909 61.6725C61.4446 61.6725 61.4887 62.0419 61.4887 62.4937C61.4887 63.2312 61.4308 63.3386 60.9202 63.5503C59.6607 64.0724 58.4907 65.9677 58.4907 67.4856C58.4907 69.8092 60.6659 71.9861 62.9876 71.9861C65.3093 71.9861 67.4845 69.8092 67.4845 67.4856C67.4845 65.9677 66.3146 64.0724 65.0551 63.5503L64.4866 63.3146L64.4905 61.4154L64.4947 59.516L65.2869 58.9559C65.7227 58.6478 66.7255 57.7785 67.5153 57.0243L68.9513 55.6529L71.2159 56.7889L73.4804 57.9249V59.1196C73.4804 60.2732 73.4609 60.3226 72.9119 60.55C71.6524 61.0721 70.4825 62.9673 70.4825 64.4853C70.4825 66.8089 72.6577 68.9858 74.9794 68.9858C77.3011 68.9858 79.4763 66.8089 79.4763 64.4853C79.4763 62.9673 78.3064 61.0721 77.0468 60.55L76.4784 60.3143V58.4496C76.4784 57.4241 76.3905 56.4205 76.2829 56.2194C76.1756 56.0184 74.974 55.2972 73.6129 54.6165C72.2518 53.936 71.1137 53.3569 71.0836 53.3299C71.0534 53.3029 71.5943 52.4475 72.2857 51.4291C74.5156 48.1443 76.3523 43.8825 77.205 40.014C77.6043 38.2023 77.9773 35.2172 77.9773 33.8331V32.982H79.7658C81.415 32.982 81.5902 33.0178 82.0142 33.4423L82.4742 33.9025V52.484V71.0656L82.9342 71.5257C83.5426 72.1348 84.4038 72.1348 85.0122 71.5257L85.4722 71.0656V52.4674C85.4722 38.6419 85.415 33.6784 85.2494 33.1252C85.1269 32.7161 84.6622 31.9756 84.2166 31.4796C83.1452 30.2869 82.2355 29.9817 79.7523 29.9817H77.8467L77.6198 28.3409C76.3478 19.1426 71.0298 10.7517 63.0926 5.41902C60.0272 3.35949 55.2837 1.39972 51.5503 0.6502C48.318 0.00119384 44.4081 -0.17695 41.3159 0.18365ZM41.5366 6.18166C27.5975 8.1043 17.4313 20.2513 18.0868 34.2009C18.5454 43.9643 24.1473 52.6243 32.8752 57.0625C36.8263 59.0718 40.2947 59.8774 45 59.8789C48.6097 59.8802 50.3206 59.63 53.3541 58.6576C56.2235 57.7376 60.576 55.3238 61.8679 53.9362C62.3776 53.3888 62.3393 52.5682 61.7782 52.0068C61.0613 51.2892 60.4969 51.4169 58.5066 52.7462C55.1849 54.9651 52.1162 56.1675 48.3727 56.7164C40.9005 57.8122 33.5627 55.3373 28.1124 49.883C24.6343 46.402 22.504 42.4874 21.4664 37.67C20.9863 35.4413 20.9863 30.5227 21.4664 28.294C22.513 23.4346 24.5874 19.6266 28.1188 16.081C31.5408 12.6455 35.1518 10.6491 40.0139 9.50451C42.3448 8.95564 47.3215 8.91645 49.6843 9.42837C54.5482 10.4819 58.3457 12.554 61.8876 16.0874C67.3382 21.5251 69.8128 28.8712 68.7159 36.3573C68.1668 40.1044 66.9655 43.1752 64.7486 46.4993C63.4203 48.4912 63.2927 49.056 64.0097 49.7734C65.0154 50.7801 65.8589 50.3051 67.5147 47.7998C69.401 44.9457 70.8479 41.3977 71.5488 37.9081C72.0416 35.4546 71.9949 30.1487 71.4593 27.6971C70.5634 23.5989 68.9444 20.0135 66.5452 16.8157C62.5128 11.4408 56.6108 7.73507 50.0245 6.4425C48.1611 6.07683 43.365 5.92944 41.5366 6.18166ZM39.6389 16.745C36.9485 18.5407 34.6933 20.1509 34.6273 20.3233C34.2456 21.3186 34.9563 22.4809 35.9468 22.4809C36.3043 22.4809 37.7986 21.5937 40.7332 19.6396L45 16.7983L49.2668 19.6396C52.2014 21.5937 53.6957 22.4809 54.0532 22.4809C55.0806 22.4809 55.8167 21.187 55.3191 20.2561C55.0349 19.7249 45.5213 13.4799 44.9959 13.4799C44.7053 13.4799 42.6921 14.7069 39.6389 16.745ZM30.4703 25.9416L30.0103 26.4017V32.982V39.5622L30.4703 40.0224C30.7602 40.3127 31.1443 40.4828 31.5093 40.4828C31.8743 40.4828 32.2584 40.3127 32.5482 40.0224C32.9981 39.5724 33.0084 39.4945 33.0182 36.5064L33.0281 33.4508L34.7013 36.771C35.6217 38.5971 36.5393 40.1794 36.7403 40.287C37.3485 40.6129 38.0583 40.5088 38.5441 40.0224L39.0041 39.5622V32.982V26.4017L38.5441 25.9416C38.2543 25.6513 37.8702 25.4812 37.5051 25.4812C37.1402 25.4812 36.756 25.6513 36.4662 25.9416C36.0163 26.3916 36.006 26.4694 35.9963 29.4576L35.9863 32.5132L34.3131 29.193C33.3927 27.3669 32.4752 25.7846 32.2741 25.677C31.6659 25.3511 30.9562 25.4551 30.4703 25.9416ZM42.4621 25.9416L42.0021 26.4017V32.982V39.5622L42.4621 40.0224C42.7519 40.3127 43.136 40.4828 43.501 40.4828C43.866 40.4828 44.2501 40.3127 44.54 40.0224C44.9831 39.5791 45 39.469 45 37.0221V34.4821H46.7885C48.4377 34.4821 48.6129 34.4463 49.0369 34.0218C49.327 33.7317 49.4969 33.3473 49.4969 32.982C49.4969 32.6167 49.327 32.2323 49.0369 31.9422C48.6129 31.5176 48.4377 31.4818 46.7885 31.4818H45V29.9817V28.4815H47.5379C49.9829 28.4815 50.0929 28.4646 50.5359 28.0211C50.8259 27.7311 50.9959 27.3466 50.9959 26.9813C50.9959 26.6161 50.8259 26.2316 50.5359 25.9416C50.0798 25.4849 50.047 25.4812 46.499 25.4812C42.9509 25.4812 42.9181 25.4849 42.4621 25.9416ZM54.4538 25.9416C54.1638 26.2316 53.9938 26.6161 53.9938 26.9813C53.9938 27.9388 54.7025 28.4815 55.9528 28.4815H56.9918V34.0218V39.5622L57.4518 40.0224C57.7416 40.3127 58.1257 40.4828 58.4907 40.4828C58.8557 40.4828 59.2398 40.3127 59.5297 40.0224L59.9897 39.5622V34.0218V28.4815H61.0287C62.279 28.4815 62.9876 27.9388 62.9876 26.9813C62.9876 26.6161 62.8177 26.2316 62.5276 25.9416C62.0716 25.4849 62.0388 25.4812 58.4907 25.4812C54.9427 25.4812 54.9099 25.4849 54.4538 25.9416ZM24.4744 31.9422C23.5449 32.8723 24.2035 34.4821 25.5134 34.4821C25.8784 34.4821 26.2625 34.3121 26.5524 34.0218C26.8424 33.7317 27.0124 33.3473 27.0124 32.982C27.0124 32.6167 26.8424 32.2323 26.5524 31.9422C26.2625 31.6519 25.8784 31.4818 25.5134 31.4818C25.1484 31.4818 24.7643 31.6519 24.4744 31.9422ZM63.4476 31.9422C62.5181 32.8723 63.1767 34.4821 64.4866 34.4821C65.2569 34.4821 65.9856 33.7529 65.9856 32.982C65.9856 32.2111 65.2569 31.4818 64.4866 31.4818C64.1216 31.4818 63.7375 31.6519 63.4476 31.9422ZM34.9672 43.9435C34.493 44.4179 34.3762 45.138 34.6809 45.7078C34.9631 46.2355 44.4785 52.484 45 52.484C45.5215 52.484 55.0369 46.2355 55.3191 45.7078C55.8167 44.777 55.0806 43.4831 54.0532 43.4831C53.6957 43.4831 52.2014 44.3702 49.2668 46.3244L45 49.1657L40.7332 46.3244C36.1553 43.2759 35.7864 43.1234 34.9672 43.9435ZM16.0596 63.4455C16.9891 64.3756 16.3305 65.9855 15.0206 65.9855C14.2503 65.9855 13.5216 65.2562 13.5216 64.4853C13.5216 63.7144 14.2503 62.9851 15.0206 62.9851C15.3856 62.9851 15.7697 63.1552 16.0596 63.4455ZM76.0184 63.4455C76.3084 63.7356 76.4784 64.12 76.4784 64.4853C76.4784 64.8506 76.3084 65.235 76.0184 65.5251C75.7285 65.8154 75.3444 65.9855 74.9794 65.9855C74.6144 65.9855 74.2303 65.8154 73.9404 65.5251C73.6504 65.235 73.4804 64.8506 73.4804 64.4853C73.4804 64.12 73.6504 63.7356 73.9404 63.4455C74.2303 63.1552 74.6144 62.9851 74.9794 62.9851C75.3444 62.9851 75.7285 63.1552 76.0184 63.4455ZM28.4261 66.4458C29.3556 67.3759 28.697 68.9858 27.3871 68.9858C26.6168 68.9858 25.8881 68.2565 25.8881 67.4856C25.8881 66.7147 26.6168 65.9855 27.3871 65.9855C27.7521 65.9855 28.1362 66.1555 28.4261 66.4458ZM64.0266 66.4458C64.3167 66.7359 64.4866 67.1203 64.4866 67.4856C64.4866 67.8509 64.3167 68.2353 64.0266 68.5254C63.7367 68.8157 63.3526 68.9858 62.9876 68.9858C62.6226 68.9858 62.2385 68.8157 61.9487 68.5254C61.6586 68.2353 61.4887 67.8509 61.4887 67.4856C61.4887 67.1203 61.6586 66.7359 61.9487 66.4458C62.2385 66.1555 62.6226 65.9855 62.9876 65.9855C63.3526 65.9855 63.7367 66.1555 64.0266 66.4458ZM46.039 70.9463C46.329 71.2364 46.499 71.6208 46.499 71.9861C46.499 72.3514 46.329 72.7358 46.039 73.0259C45.1096 73.9562 43.501 73.2971 43.501 71.9861C43.501 71.2152 44.2297 70.4859 45 70.4859C45.365 70.4859 45.7491 70.656 46.039 70.9463ZM7.98576 81.4474C7.05621 82.3775 7.71482 83.9874 9.02473 83.9874C9.79502 83.9874 10.5237 83.2581 10.5237 82.4872C10.5237 81.7163 9.79502 80.987 9.02473 80.987C8.65973 80.987 8.27562 81.1571 7.98576 81.4474ZM13.9816 81.4474C13.0521 82.3775 13.7107 83.9874 15.0206 83.9874C15.7909 83.9874 16.5196 83.2581 16.5196 82.4872C16.5196 81.7163 15.7909 80.987 15.0206 80.987C14.6556 80.987 14.2715 81.1571 13.9816 81.4474ZM73.9404 81.4474C73.6504 81.7375 73.4804 82.1219 73.4804 82.4872C73.4804 82.8525 73.6504 83.2369 73.9404 83.527C74.2303 83.8173 74.6144 83.9874 74.9794 83.9874C75.3444 83.9874 75.7285 83.8173 76.0184 83.527C76.3084 83.2369 76.4784 82.8525 76.4784 82.4872C76.4784 82.1219 76.3084 81.7375 76.0184 81.4474C75.7285 81.1571 75.3444 80.987 74.9794 80.987C74.6144 80.987 74.2303 81.1571 73.9404 81.4474ZM79.9363 81.4474C79.6462 81.7375 79.4763 82.1219 79.4763 82.4872C79.4763 82.8525 79.6462 83.2369 79.9363 83.527C80.2262 83.8173 80.6103 83.9874 80.9753 83.9874C81.3403 83.9874 81.7244 83.8173 82.0142 83.527C82.3043 83.2369 82.4742 82.8525 82.4742 82.4872C82.4742 82.1219 82.3043 81.7375 82.0142 81.4474C81.7244 81.1571 81.3403 80.987 80.9753 80.987C80.6103 80.987 80.2262 81.1571 79.9363 81.4474Z" fill="white"/>
</g>
<defs>
<clipPath id="clip0_2_361">
<rect width="90" height="90" fill="white"/>
</clipPath>
</defs>
</svg>
