<svg width="90" height="90" viewBox="0 0 90 90" fill="none" xmlns="http://www.w3.org/2000/svg">
<mask id="path-1-inside-1_2_367" fill="white">
<path fill-rule="evenodd" clip-rule="evenodd" d="M43.0393 2.59191C42.7141 2.77706 41.2405 3.65653 39.7641 4.54667C38.2882 5.43682 36.9486 6.16515 36.7874 6.16515C36.6261 6.16515 35.4025 6.87727 34.0676 7.74763C32.7328 8.618 31.4969 9.33011 31.3211 9.33011C31.1453 9.33011 30.3426 9.77954 29.5368 10.3287C28.7314 10.8782 27.0493 11.8842 25.7988 12.5651C24.5483 13.2456 23.0215 14.1551 22.4057 14.5859C21.3224 15.3435 21.3098 15.3914 22.0115 16.0648C22.4105 16.4473 23.89 17.375 25.2993 18.1267C26.7087 18.878 28.394 19.8089 29.0444 20.1954C30.3612 20.9772 29.5774 21.296 36.4361 17.1907C37.5746 16.509 39.4807 15.4195 40.6724 14.7691C41.8642 14.1187 43.2577 13.2558 43.7698 12.8515C44.8007 12.0377 44.9675 12.0876 47.9297 14.0934C48.8805 14.7374 49.8125 15.2644 50.0005 15.2644C50.1889 15.2644 51.2277 15.8563 52.3087 16.5798C53.39 17.303 55.5484 18.5801 57.1052 19.4172L59.9353 20.9396L61.2445 19.9513C61.9644 19.4081 63.5846 18.4444 64.8449 17.8098C66.1053 17.1753 67.4058 16.3579 67.7346 15.9931C68.2814 15.3871 68.1371 15.2035 66.0655 13.8738C64.8185 13.0735 63.518 12.3194 63.1758 12.1988C62.8332 12.0781 62.2872 11.7592 61.962 11.4902C61.6368 11.2212 60.395 10.5043 59.2024 9.89743C58.0099 9.29016 56.5375 8.45105 55.9308 8.03208C54.9255 7.33817 51.9129 5.601 47.4534 3.1438C45.7248 2.19115 44.1006 1.9882 43.0393 2.59191ZM13.8677 19.5173C13.3378 19.8979 11.5686 20.9313 9.9361 21.8131L6.968 23.4162L6.8592 28.9548L6.75 34.4935L8.18221 35.2638C11.0017 36.781 12.5076 37.6403 13.8389 38.4917C14.5824 38.9672 15.3366 39.2659 15.5143 39.1555C15.6925 39.0451 15.838 36.7319 15.838 34.0144V29.0743L17.0621 28.4002C18.1418 27.806 22.0817 25.4338 23.7225 24.3898C24.231 24.0666 24.2034 23.9285 23.5253 23.4047C23.0917 23.0696 21.9386 22.3994 20.9629 21.9156C19.9872 21.4313 18.4537 20.538 17.5548 19.93C15.6444 18.6379 15.1655 18.5845 13.8677 19.5173ZM42.448 20.0886C41.3639 20.775 39.5899 21.8048 38.5058 22.3765C37.4217 22.9481 36.5347 23.6492 36.5347 23.934C36.5347 24.2185 37.6878 25.13 39.0971 25.9592C40.5065 26.7884 42.2485 27.8368 42.968 28.289C44.5074 29.2559 45.519 29.3331 46.1805 28.5331C46.4434 28.215 47.0415 27.8392 47.5098 27.698C48.5159 27.3945 53.6833 24.2758 53.6833 23.972C53.6833 23.701 52.667 23.0712 49.4218 21.3301C47.9715 20.5519 46.5046 19.67 46.162 19.3702C45.2568 18.5773 44.6486 18.6948 42.448 20.0886ZM72.1905 19.9367C71.2266 20.5483 69.9056 21.3225 69.2551 21.6572C67.2426 22.6934 65.5151 23.7611 65.5155 23.9681C65.5163 24.192 67.5836 25.4678 71.3902 27.5927L73.9858 29.0419L74.0958 34.2194C74.1561 37.0674 74.3079 39.3972 74.4328 39.3972C74.5578 39.3972 75.4483 38.8631 76.4122 38.2104C77.3761 37.5576 78.2655 37.0235 78.3888 37.0235C78.5122 37.0235 79.6567 36.3874 80.9316 35.6104L83.25 34.1968V28.9398V23.6828L80.7861 22.3773C79.4312 21.6592 77.5807 20.5665 76.6744 19.9486C74.6351 18.5583 74.3646 18.5576 72.1905 19.9367ZM27.5093 28.759C26.4485 29.4276 24.6745 30.4653 23.5671 31.0651L21.5542 32.1558L21.445 37.4666L21.3362 42.777L24.0075 44.3373C25.4767 45.1954 27.3 46.2395 28.0589 46.6569C28.8178 47.0746 30.0564 47.8374 30.8114 48.3521C31.5663 48.8668 32.3551 49.2877 32.5641 49.2877C32.7734 49.2877 33.619 49.7569 34.4437 50.3306L35.9433 51.3734V59.7843V68.1952L37.8506 69.4232C38.8992 70.0985 39.8595 70.6512 39.9841 70.6512C40.1091 70.6512 41.1538 71.2743 42.3061 72.0359C44.7195 73.631 45.1007 73.6892 46.5266 72.6795C47.1022 72.2717 48.6373 71.3863 49.9382 70.7113C54.0023 68.6031 53.6814 69.5233 53.6979 59.9259L53.7121 51.4636L55.4242 50.3757C56.366 49.7771 57.255 49.2877 57.4001 49.2877C57.5451 49.2877 58.7321 48.5756 60.0378 47.7052C61.3435 46.8349 62.5218 46.1228 62.6562 46.1228C62.7903 46.1228 64.1081 45.3901 65.5849 44.4948L68.2696 42.8672V37.6003C68.2696 32.3817 68.2601 32.3259 67.2308 31.5137C66.6595 31.0627 66.0343 30.6936 65.8415 30.6936C65.6484 30.6936 64.3671 29.9815 62.9937 29.1111C61.6206 28.2407 60.1986 27.5286 59.834 27.5286C59.0708 27.5286 57.5238 28.346 53.092 31.09C51.3574 32.1641 49.3173 33.3359 48.5584 33.694C47.7996 34.0516 46.6823 34.6984 46.076 35.1309L44.9734 35.917L43.4233 34.888C42.571 34.3218 41.755 33.8585 41.6103 33.8585C41.4656 33.8585 40.415 33.2378 39.2765 32.4794C38.1376 31.7206 36.7885 30.9401 36.2788 30.7442C35.7691 30.5484 34.3802 29.7449 33.1929 28.9584C32.0051 28.1719 30.6746 27.5322 30.2362 27.5361C29.7974 27.5401 28.5706 28.0908 27.5093 28.759ZM6.86432 54.8956L6.968 68.8116L10.3189 70.6971C12.1619 71.7344 14.5568 73.0586 15.6409 73.6393C16.725 74.2205 18.1442 75.0956 18.7947 75.5838C19.4451 76.072 20.4208 76.6104 20.9629 76.7797C21.5049 76.9491 22.0371 77.2165 22.1456 77.374C22.254 77.5314 23.5845 78.3294 25.1022 79.1467C26.62 79.9645 28.3325 80.969 28.908 81.3788C29.4836 81.7887 30.0604 82.1242 30.1893 82.1242C30.3186 82.1242 30.4242 79.6512 30.4242 76.6282V71.1327L29.3441 70.8605C28.75 70.7109 28.1736 70.4605 28.0628 70.3042C27.8555 70.0107 24.6741 68.0745 22.934 67.1824C22.3919 66.9043 20.6179 65.9073 18.9918 64.9665L16.0351 63.2559L15.9291 54.5613L15.8234 45.8668L14.5493 45.1982C12.7922 44.2756 10.1987 42.7968 8.60403 41.8077C7.86999 41.3524 7.15487 40.9797 7.01492 40.9797C6.87536 40.9797 6.80756 47.242 6.86432 54.8956ZM81.1192 41.9688C80.3205 42.5127 79.5538 42.9578 79.4158 42.9578C79.2774 42.9578 78.049 43.6256 76.6862 44.4414L74.2081 45.925L74.0969 54.5685L73.9858 63.212L71.529 64.5238C70.1776 65.2451 68.6015 66.2068 68.0263 66.661C67.4511 67.1148 66.8239 67.4862 66.6324 67.4862C66.4408 67.4862 65.1765 68.1541 63.8227 68.9698C62.469 69.786 60.8755 70.7062 60.2818 71.0148L59.2024 71.5762V76.629C59.2024 79.4082 59.3578 81.7784 59.5478 81.8959C59.7378 82.0138 60.669 81.5826 61.6175 80.9373C62.5659 80.2925 63.4723 79.7615 63.6315 79.7576C63.7908 79.7536 64.8378 79.1843 65.9582 78.4928C67.9463 77.2652 68.7659 76.8003 73.0743 74.4579C74.2259 73.8316 75.6723 72.9624 76.2876 72.5264C76.9034 72.0905 78.6774 71.0603 80.2299 70.2374L83.0529 68.7408L83.1566 54.8604C83.2141 47.134 83.1073 40.9797 82.9157 40.9797C82.7265 40.9797 81.9179 41.4248 81.1192 41.9688ZM21.4446 54.7275L21.5542 60.1673L23.3818 61.1563C24.3867 61.7003 26.1824 62.7242 27.3718 63.4311C28.5615 64.1381 29.7347 64.7169 29.9795 64.7169C30.2866 64.7169 30.4242 63.1328 30.4242 59.5905V54.464L28.5517 53.3966C27.522 52.8091 25.5749 51.6444 24.2251 50.8081C22.8749 49.9721 21.6725 49.2877 21.5526 49.2877C21.4328 49.2877 21.3843 51.7358 21.4446 54.7275ZM66.1013 50.5486C65.0172 51.2579 63.0658 52.3997 61.7649 53.0861L59.3996 54.3339L59.2896 59.5252C59.1603 65.6268 59.1212 65.5889 62.9937 63.1344C64.3671 62.2641 65.6283 61.5512 65.7958 61.55C65.9638 61.5488 66.5957 61.1484 67.2004 60.6598L68.2991 59.7717L68.186 54.5154L68.0724 49.2592L66.1013 50.5486ZM35.9437 80.245L35.9441 85.4869L37.9712 86.6738C39.0865 87.3266 40.8159 88.3386 41.8145 88.9225C43.7119 90.0314 45.3341 90.291 46.4943 89.6706C46.8708 89.4693 48.6424 88.4648 50.431 87.4382L53.6833 85.572V80.2786V74.9856L50.6281 76.6247C48.9475 77.5263 47.3068 78.4865 46.9816 78.7586C45.5009 79.9969 44.7317 80.1528 43.7714 79.4094C43.2605 79.0142 41.7956 78.1189 40.5159 77.4206C39.2363 76.7224 37.8222 75.8928 37.3728 75.5771C36.9238 75.2614 36.4184 75.003 36.2496 75.003C36.0813 75.003 35.9433 77.3621 35.9437 80.245Z"/>
</mask>
<path fill-rule="evenodd" clip-rule="evenodd" d="M43.0393 2.59191C42.7141 2.77706 41.2405 3.65653 39.7641 4.54667C38.2882 5.43682 36.9486 6.16515 36.7874 6.16515C36.6261 6.16515 35.4025 6.87727 34.0676 7.74763C32.7328 8.618 31.4969 9.33011 31.3211 9.33011C31.1453 9.33011 30.3426 9.77954 29.5368 10.3287C28.7314 10.8782 27.0493 11.8842 25.7988 12.5651C24.5483 13.2456 23.0215 14.1551 22.4057 14.5859C21.3224 15.3435 21.3098 15.3914 22.0115 16.0648C22.4105 16.4473 23.89 17.375 25.2993 18.1267C26.7087 18.878 28.394 19.8089 29.0444 20.1954C30.3612 20.9772 29.5774 21.296 36.4361 17.1907C37.5746 16.509 39.4807 15.4195 40.6724 14.7691C41.8642 14.1187 43.2577 13.2558 43.7698 12.8515C44.8007 12.0377 44.9675 12.0876 47.9297 14.0934C48.8805 14.7374 49.8125 15.2644 50.0005 15.2644C50.1889 15.2644 51.2277 15.8563 52.3087 16.5798C53.39 17.303 55.5484 18.5801 57.1052 19.4172L59.9353 20.9396L61.2445 19.9513C61.9644 19.4081 63.5846 18.4444 64.8449 17.8098C66.1053 17.1753 67.4058 16.3579 67.7346 15.9931C68.2814 15.3871 68.1371 15.2035 66.0655 13.8738C64.8185 13.0735 63.518 12.3194 63.1758 12.1988C62.8332 12.0781 62.2872 11.7592 61.962 11.4902C61.6368 11.2212 60.395 10.5043 59.2024 9.89743C58.0099 9.29016 56.5375 8.45105 55.9308 8.03208C54.9255 7.33817 51.9129 5.601 47.4534 3.1438C45.7248 2.19115 44.1006 1.9882 43.0393 2.59191ZM13.8677 19.5173C13.3378 19.8979 11.5686 20.9313 9.9361 21.8131L6.968 23.4162L6.8592 28.9548L6.75 34.4935L8.18221 35.2638C11.0017 36.781 12.5076 37.6403 13.8389 38.4917C14.5824 38.9672 15.3366 39.2659 15.5143 39.1555C15.6925 39.0451 15.838 36.7319 15.838 34.0144V29.0743L17.0621 28.4002C18.1418 27.806 22.0817 25.4338 23.7225 24.3898C24.231 24.0666 24.2034 23.9285 23.5253 23.4047C23.0917 23.0696 21.9386 22.3994 20.9629 21.9156C19.9872 21.4313 18.4537 20.538 17.5548 19.93C15.6444 18.6379 15.1655 18.5845 13.8677 19.5173ZM42.448 20.0886C41.3639 20.775 39.5899 21.8048 38.5058 22.3765C37.4217 22.9481 36.5347 23.6492 36.5347 23.934C36.5347 24.2185 37.6878 25.13 39.0971 25.9592C40.5065 26.7884 42.2485 27.8368 42.968 28.289C44.5074 29.2559 45.519 29.3331 46.1805 28.5331C46.4434 28.215 47.0415 27.8392 47.5098 27.698C48.5159 27.3945 53.6833 24.2758 53.6833 23.972C53.6833 23.701 52.667 23.0712 49.4218 21.3301C47.9715 20.5519 46.5046 19.67 46.162 19.3702C45.2568 18.5773 44.6486 18.6948 42.448 20.0886ZM72.1905 19.9367C71.2266 20.5483 69.9056 21.3225 69.2551 21.6572C67.2426 22.6934 65.5151 23.7611 65.5155 23.9681C65.5163 24.192 67.5836 25.4678 71.3902 27.5927L73.9858 29.0419L74.0958 34.2194C74.1561 37.0674 74.3079 39.3972 74.4328 39.3972C74.5578 39.3972 75.4483 38.8631 76.4122 38.2104C77.3761 37.5576 78.2655 37.0235 78.3888 37.0235C78.5122 37.0235 79.6567 36.3874 80.9316 35.6104L83.25 34.1968V28.9398V23.6828L80.7861 22.3773C79.4312 21.6592 77.5807 20.5665 76.6744 19.9486C74.6351 18.5583 74.3646 18.5576 72.1905 19.9367ZM27.5093 28.759C26.4485 29.4276 24.6745 30.4653 23.5671 31.0651L21.5542 32.1558L21.445 37.4666L21.3362 42.777L24.0075 44.3373C25.4767 45.1954 27.3 46.2395 28.0589 46.6569C28.8178 47.0746 30.0564 47.8374 30.8114 48.3521C31.5663 48.8668 32.3551 49.2877 32.5641 49.2877C32.7734 49.2877 33.619 49.7569 34.4437 50.3306L35.9433 51.3734V59.7843V68.1952L37.8506 69.4232C38.8992 70.0985 39.8595 70.6512 39.9841 70.6512C40.1091 70.6512 41.1538 71.2743 42.3061 72.0359C44.7195 73.631 45.1007 73.6892 46.5266 72.6795C47.1022 72.2717 48.6373 71.3863 49.9382 70.7113C54.0023 68.6031 53.6814 69.5233 53.6979 59.9259L53.7121 51.4636L55.4242 50.3757C56.366 49.7771 57.255 49.2877 57.4001 49.2877C57.5451 49.2877 58.7321 48.5756 60.0378 47.7052C61.3435 46.8349 62.5218 46.1228 62.6562 46.1228C62.7903 46.1228 64.1081 45.3901 65.5849 44.4948L68.2696 42.8672V37.6003C68.2696 32.3817 68.2601 32.3259 67.2308 31.5137C66.6595 31.0627 66.0343 30.6936 65.8415 30.6936C65.6484 30.6936 64.3671 29.9815 62.9937 29.1111C61.6206 28.2407 60.1986 27.5286 59.834 27.5286C59.0708 27.5286 57.5238 28.346 53.092 31.09C51.3574 32.1641 49.3173 33.3359 48.5584 33.694C47.7996 34.0516 46.6823 34.6984 46.076 35.1309L44.9734 35.917L43.4233 34.888C42.571 34.3218 41.755 33.8585 41.6103 33.8585C41.4656 33.8585 40.415 33.2378 39.2765 32.4794C38.1376 31.7206 36.7885 30.9401 36.2788 30.7442C35.7691 30.5484 34.3802 29.7449 33.1929 28.9584C32.0051 28.1719 30.6746 27.5322 30.2362 27.5361C29.7974 27.5401 28.5706 28.0908 27.5093 28.759ZM6.86432 54.8956L6.968 68.8116L10.3189 70.6971C12.1619 71.7344 14.5568 73.0586 15.6409 73.6393C16.725 74.2205 18.1442 75.0956 18.7947 75.5838C19.4451 76.072 20.4208 76.6104 20.9629 76.7797C21.5049 76.9491 22.0371 77.2165 22.1456 77.374C22.254 77.5314 23.5845 78.3294 25.1022 79.1467C26.62 79.9645 28.3325 80.969 28.908 81.3788C29.4836 81.7887 30.0604 82.1242 30.1893 82.1242C30.3186 82.1242 30.4242 79.6512 30.4242 76.6282V71.1327L29.3441 70.8605C28.75 70.7109 28.1736 70.4605 28.0628 70.3042C27.8555 70.0107 24.6741 68.0745 22.934 67.1824C22.3919 66.9043 20.6179 65.9073 18.9918 64.9665L16.0351 63.2559L15.9291 54.5613L15.8234 45.8668L14.5493 45.1982C12.7922 44.2756 10.1987 42.7968 8.60403 41.8077C7.86999 41.3524 7.15487 40.9797 7.01492 40.9797C6.87536 40.9797 6.80756 47.242 6.86432 54.8956ZM81.1192 41.9688C80.3205 42.5127 79.5538 42.9578 79.4158 42.9578C79.2774 42.9578 78.049 43.6256 76.6862 44.4414L74.2081 45.925L74.0969 54.5685L73.9858 63.212L71.529 64.5238C70.1776 65.2451 68.6015 66.2068 68.0263 66.661C67.4511 67.1148 66.8239 67.4862 66.6324 67.4862C66.4408 67.4862 65.1765 68.1541 63.8227 68.9698C62.469 69.786 60.8755 70.7062 60.2818 71.0148L59.2024 71.5762V76.629C59.2024 79.4082 59.3578 81.7784 59.5478 81.8959C59.7378 82.0138 60.669 81.5826 61.6175 80.9373C62.5659 80.2925 63.4723 79.7615 63.6315 79.7576C63.7908 79.7536 64.8378 79.1843 65.9582 78.4928C67.9463 77.2652 68.7659 76.8003 73.0743 74.4579C74.2259 73.8316 75.6723 72.9624 76.2876 72.5264C76.9034 72.0905 78.6774 71.0603 80.2299 70.2374L83.0529 68.7408L83.1566 54.8604C83.2141 47.134 83.1073 40.9797 82.9157 40.9797C82.7265 40.9797 81.9179 41.4248 81.1192 41.9688ZM21.4446 54.7275L21.5542 60.1673L23.3818 61.1563C24.3867 61.7003 26.1824 62.7242 27.3718 63.4311C28.5615 64.1381 29.7347 64.7169 29.9795 64.7169C30.2866 64.7169 30.4242 63.1328 30.4242 59.5905V54.464L28.5517 53.3966C27.522 52.8091 25.5749 51.6444 24.2251 50.8081C22.8749 49.9721 21.6725 49.2877 21.5526 49.2877C21.4328 49.2877 21.3843 51.7358 21.4446 54.7275ZM66.1013 50.5486C65.0172 51.2579 63.0658 52.3997 61.7649 53.0861L59.3996 54.3339L59.2896 59.5252C59.1603 65.6268 59.1212 65.5889 62.9937 63.1344C64.3671 62.2641 65.6283 61.5512 65.7958 61.55C65.9638 61.5488 66.5957 61.1484 67.2004 60.6598L68.2991 59.7717L68.186 54.5154L68.0724 49.2592L66.1013 50.5486ZM35.9437 80.245L35.9441 85.4869L37.9712 86.6738C39.0865 87.3266 40.8159 88.3386 41.8145 88.9225C43.7119 90.0314 45.3341 90.291 46.4943 89.6706C46.8708 89.4693 48.6424 88.4648 50.431 87.4382L53.6833 85.572V80.2786V74.9856L50.6281 76.6247C48.9475 77.5263 47.3068 78.4865 46.9816 78.7586C45.5009 79.9969 44.7317 80.1528 43.7714 79.4094C43.2605 79.0142 41.7956 78.1189 40.5159 77.4206C39.2363 76.7224 37.8222 75.8928 37.3728 75.5771C36.9238 75.2614 36.4184 75.003 36.2496 75.003C36.0813 75.003 35.9433 77.3621 35.9437 80.245Z" stroke="white" stroke-width="6" mask="url(#path-1-inside-1_2_367)"/>
</svg>
