<svg width="90" height="90" viewBox="0 0 90 90" fill="none" xmlns="http://www.w3.org/2000/svg">
<g clip-path="url(#clip0_2_660)">
<path d="M25.0392 34.7205C27.28 24.2894 35.6788 16.6356 46.0733 15.5525C46.6918 15.488 47.4982 15.4268 47.8655 15.4166L48.5332 15.3979V20.1535L47.5844 20.2399C42.2466 20.7263 38.2034 22.5922 34.7739 26.1521C32.1474 28.878 30.5522 31.8944 29.7341 35.6818C29.383 37.3072 29.389 41.5569 29.7448 43.1898C30.5874 47.057 32.2895 50.1921 35.0295 52.924C37.3822 55.2696 40.0139 56.8565 43.0733 57.7746C44.5241 58.2101 46.4924 58.5387 47.6546 58.5394L48.5332 58.5399V63.3912L46.8699 63.2917C42.759 63.0458 38.8382 61.7011 35.1794 59.2821C32.9975 57.8395 30.1811 55.0363 28.737 52.8696C26.9391 50.1725 25.7394 47.3178 25.037 44.0656C24.7602 42.7845 24.7175 42.1733 24.7127 39.4281C24.7078 36.6217 24.7445 36.0926 25.0392 34.7205Z" fill="white"/>
<path d="M38.7754 28.8987C41.2447 26.5894 44.3245 25.2801 47.8303 25.049C48.1782 25.0261 48.6843 25.0245 48.9549 25.0454C50.9177 25.1969 51.4782 25.2826 52.566 25.5978C58.291 27.2563 62.4076 32.319 62.9293 38.3424L63.0239 39.4349L58.162 39.3579L58.072 38.3517C57.8787 36.1888 56.9906 34.3787 55.2872 32.6759C53.3346 30.7237 51.2843 29.8722 48.5363 29.8722C42.0638 29.8722 37.4918 36.1309 39.4515 42.309C40.6037 45.9413 43.8508 48.5893 47.5775 48.9355L48.5332 49.0244V53.8037L47.3592 53.7209C44.0972 53.4908 40.8165 51.9638 38.4054 49.5532C32.646 43.7955 32.813 34.4747 38.7754 28.8987Z" fill="white"/>
<path d="M22.3931 60.442C17.8424 54.6665 15.4844 48.3945 15.0067 40.7949L14.9204 39.4214L19.7874 39.4984L19.8799 41.3253C20.0532 44.7485 21.0612 48.5728 22.6686 51.9052C26.0139 58.8405 32.0041 64.1453 39.2734 66.6099C42.021 67.5414 43.5872 67.8368 47.5844 68.1777L48.5332 68.2587V73.0504L46.9518 72.9537C38.4459 72.4331 30.847 69.0774 24.975 63.2489C24.0399 62.3207 22.878 61.0576 22.3931 60.442Z" fill="white"/>
<path d="M56.2656 42.763C56.2522 42.2973 56.3817 41.8237 56.5531 41.7107C56.9554 41.4456 75.0796 41.5033 75.0796 41.7697C75.0796 41.8803 73.4219 43.5195 71.396 45.4126L67.7125 48.8541H53.0805L52.9338 55.5409L50.9682 55.5666V46.7562H66.7344L68.2862 45.4058C69.1398 44.6631 69.838 43.9585 69.838 43.8402C69.838 43.722 69.3369 43.6381 68.7241 43.6535C68.1114 43.669 65.0631 43.6653 61.9499 43.6457L56.2895 43.6095L56.2656 42.763Z" fill="white"/>
<path d="M56.4719 55.7195V51.2141H58.5685V53.624L63.303 53.5205C65.9068 53.4636 68.0873 53.4979 68.1483 53.5968C68.2097 53.6959 66.6034 55.3243 64.5791 57.2155L60.8984 60.6544H53.0648V70.1353L56.4548 67.0791L56.4719 63.0145H58.5685V67.9261L55.227 71.0455C53.3893 72.7611 51.6792 74.3255 51.4268 74.5219C50.9923 74.8605 50.9682 74.4517 50.9682 66.7177V58.5566H59.9203L61.4745 57.204C62.3291 56.4603 62.9586 55.7817 62.8732 55.6962C62.7877 55.611 61.3125 55.5811 59.5948 55.6304L56.4719 55.7195Z" fill="white"/>
<path d="M90 45C90 69.8528 69.8528 90 45 90C20.1472 90 0 69.8528 0 45C0 20.1472 20.1472 0 45 0C69.8528 0 90 20.1472 90 45ZM4.5 45C4.5 67.3675 22.6325 85.5 45 85.5C67.3675 85.5 85.5 67.3675 85.5 45C85.5 22.6325 67.3675 4.5 45 4.5C22.6325 4.5 4.5 22.6325 4.5 45Z" fill="white"/>
</g>
<defs>
<clipPath id="clip0_2_660">
<rect width="90" height="90" fill="white"/>
</clipPath>
</defs>
</svg>
