<svg width="32" height="32" viewBox="0 0 32 32" fill="none" xmlns="http://www.w3.org/2000/svg">
<path fill-rule="evenodd" clip-rule="evenodd" d="M2.79935 0.113489C1.49715 0.456096 0.43475 1.52863 0.101387 2.83736C0.0134144 3.18276 0.000218544 4.40614 0.000218544 12.2347C0.000218544 22.1516 -0.0233074 21.5747 0.417822 22.4623C0.704866 23.04 1.42178 23.7567 1.9996 24.0437C2.66259 24.373 3.10872 24.4612 4.11294 24.4612H4.99866V23.2285V21.9959L4.31554 21.9955C3.93979 21.9953 3.51313 21.9621 3.36737 21.9216C3.02761 21.8273 2.6348 21.4345 2.54043 21.0949C2.43653 20.7207 2.43653 3.74878 2.54043 3.37459C2.6348 3.03491 3.02761 2.6422 3.36737 2.54785C3.74166 2.44398 20.7178 2.44398 21.0921 2.54785C21.4319 2.6422 21.8247 3.03491 21.9191 3.37459C21.9595 3.5203 21.9928 3.93194 21.993 4.2892L21.9934 4.93884H23.2263H24.4593V4.08665C24.4593 3.54356 24.4226 3.09048 24.3581 2.83736C24.0209 1.51363 22.9535 0.446568 21.6295 0.109425C21.0465 -0.0390252 3.36451 -0.0352273 2.79935 0.113489ZM10.62 7.5429C9.10632 7.79929 7.88377 8.98356 7.5648 10.5024C7.41818 11.2008 7.41818 28.2602 7.5648 28.9586C7.87317 30.427 9.02821 31.5818 10.497 31.8901C11.1955 32.0366 28.2593 32.0366 28.9579 31.8901C30.4303 31.581 31.5809 30.4307 31.89 28.9586C32.0367 28.2602 32.0367 11.2008 31.89 10.5024C31.6109 9.17319 30.6467 8.10172 29.3244 7.65158L28.8912 7.50406L19.9274 7.4944C14.9972 7.48907 10.8089 7.51086 10.62 7.5429ZM28.7773 10.1288C29.0601 10.2732 29.1963 10.4128 29.3497 10.7156C29.4477 10.909 29.4577 11.7479 29.4577 19.7305C29.4577 27.7131 29.4477 28.552 29.3497 28.7454C29.1963 29.0483 29.0601 29.1879 28.7773 29.3322C28.5383 29.4541 28.2336 29.4584 19.7267 29.4584C11.7427 29.4584 10.9037 29.4483 10.7102 29.3504C10.4073 29.197 10.2677 29.0609 10.1233 28.7781C10.0014 28.5392 9.99711 28.2346 9.99711 19.7305C9.99711 11.2264 10.0014 10.9218 10.1233 10.6829C10.2646 10.4063 10.4031 10.2688 10.6969 10.1136C10.8764 10.0188 11.7979 10.0077 19.7134 10.0053C28.2362 10.0027 28.5382 10.0069 28.7773 10.1288Z" fill="white"/>
</svg>
