<svg width="50" height="50" viewBox="0 0 50 50" fill="none" xmlns="http://www.w3.org/2000/svg">
<path fill-rule="evenodd" clip-rule="evenodd" d="M4.34839 0.113685C4.08 0.164223 3.50671 0.376344 3.07436 0.585044C1.58873 1.30235 0.394927 2.85503 0.10965 4.44125C-0.0365501 5.25376 -0.0365501 44.7951 0.10965 45.6076C0.450459 47.5028 1.93042 49.1423 3.9092 49.817C4.42705 49.9935 5.16957 50 24.9902 50C44.8108 50 45.5533 49.9935 46.0711 49.817C47.4093 49.3607 48.3636 48.6315 49.0848 47.5138C49.7171 46.5341 49.8911 45.8979 49.9493 44.3548L49.9706 43.792C49.9866 43.3654 49.6451 43.0108 49.2182 43.0108C48.7826 43.0108 48.4258 43.3567 48.4122 43.7921L48.3975 44.2686C48.3595 45.4862 48.3467 45.55 47.997 46.2588C47.5613 47.1415 46.9936 47.6972 46.0887 48.1266C45.6594 48.3303 45.1903 48.436 44.7151 48.436H24.9902H5.26522C4.79008 48.436 4.32089 48.3303 3.89163 48.1266C2.98427 47.6961 2.41919 47.1419 1.9802 46.2522C1.7404 45.7663 1.61567 45.2318 1.61567 44.6899V25.0295V5.26781C1.61567 4.79216 1.72117 4.32244 1.92457 3.89247C2.35331 2.98612 2.90805 2.4175 3.78945 1.98113C4.49713 1.63089 4.56076 1.61808 5.77643 1.58006L6.2622 1.56493C6.69134 1.55157 7.03231 1.19983 7.03231 0.770479C7.03231 0.346204 6.68612 0.00345194 6.26187 0.00768232L5.93434 0.0109482C5.33051 0.016911 4.61678 0.0632454 4.34839 0.113685ZM8.59386 0.782014C8.59386 1.21322 8.94343 1.56403 9.37464 1.56403C9.80585 1.56403 10.1554 1.21322 10.1554 0.782014C10.1554 0.350803 9.80585 0 9.37464 0C8.94343 0 8.59386 0.350803 8.59386 0.782014ZM11.717 0.780938C11.717 1.21243 12.0664 1.56241 12.4979 1.56306L28.5281 1.58739L44.7177 1.61196C45.1266 1.61258 45.5299 1.70673 45.8968 1.88719C47.201 2.52864 48.0311 4.18074 48.3132 6.69599C48.3759 7.25503 48.4122 13.75 48.4127 24.5112L48.4134 40.6634C48.4134 41.096 48.7642 41.4467 49.1968 41.4467C49.6292 41.4467 49.9795 41.0958 49.9787 40.6634L49.9483 23.8759C49.9166 6.41496 49.9151 6.29922 49.7103 5.37634C49.0176 2.25347 47.6696 0.564907 45.5052 0.108993C45.1365 0.0312805 40.2086 0 28.3525 0H12.4979C12.0666 0 11.717 0.349638 11.717 0.780938ZM20.1103 8.67097C16.8627 8.86862 12.7834 9.59404 11.5237 10.1978C10.7143 10.586 9.53421 11.7416 9.14675 12.5258C8.90432 13.0164 8.18991 15.3467 8.25705 15.4279C8.29385 15.4722 9.70354 15.8322 9.73145 15.8042C9.74394 15.7918 9.88946 15.2828 10.055 14.6731C10.2205 14.0635 10.4047 13.4709 10.4642 13.3562C10.7551 12.7959 11.2937 12.1919 11.8103 11.8463C12.444 11.4225 13.5714 11.1015 15.6549 10.7514C17.5512 10.4329 17.5591 10.4409 16.2352 11.3326C14.8031 12.2973 13.4002 13.506 13.3141 13.8496C13.225 14.2053 13.3808 14.5816 13.6889 14.7547C13.9961 14.9275 14.0693 14.9105 15.9624 14.2257C19.4011 12.9821 23.372 12.3581 26.2833 12.6039C29.0535 12.8378 31.7358 13.4058 34.2619 14.2934C35.0402 14.5669 35.8266 14.7913 36.0093 14.7921C36.4198 14.7938 36.7018 14.4827 36.7018 14.0283C36.7018 13.7604 36.5953 13.6085 36.0413 13.0861C35.2532 12.343 34.1206 11.4792 33.2712 10.9734C32.4851 10.5055 32.6468 10.4719 34.3305 10.754C37.2915 11.25 38.3388 11.6787 39.0888 12.7022C39.5751 13.3656 39.6605 13.6061 40.2609 16.0046C41.3776 20.4653 42.1503 24.8094 42.6019 29.1655C42.6791 29.9109 42.7557 30.5299 42.772 30.5413C42.8276 30.5802 44.2012 30.449 44.2485 30.4004C44.3225 30.3242 44.0472 27.8382 43.6801 25.2688C42.9762 20.3418 41.5673 14.0601 40.8363 12.5904C40.3459 11.6043 39.4823 10.7361 38.5192 10.2607C36.833 9.42845 31.5665 8.60723 27.8893 8.60313C27.1073 8.60225 27.0095 8.62356 26.7913 8.84213C26.5067 9.12708 26.4773 9.56501 26.7225 9.86393C26.8341 9.9999 27.1979 10.1533 27.7717 10.3063C28.2548 10.435 28.9575 10.6557 29.3332 10.7967C30.1231 11.0929 31.5451 11.7469 31.4992 11.7928C31.482 11.81 30.9218 11.7181 30.2543 11.5888C28.1118 11.1735 26.5978 11.0128 24.795 11.0093C22.7001 11.0053 21.3759 11.1719 18.6464 11.7831C18.261 11.8694 19.2785 11.3514 20.3022 10.9402C20.814 10.7345 21.6499 10.4551 22.1599 10.3192C22.7739 10.1555 23.1447 10.0018 23.2578 9.86393C23.5031 9.56501 23.4736 9.12708 23.189 8.84213C22.9594 8.61202 22.9021 8.60293 21.7983 8.62023C21.1651 8.63021 20.4055 8.65298 20.1103 8.67097ZM7.67694 17.7389C7.58236 18.1405 7.52986 18.5093 7.56031 18.5586C7.60745 18.6349 8.74748 18.8992 8.95282 18.8813C9.02543 18.8751 9.38274 17.4736 9.32633 17.4167C9.30183 17.3921 8.72425 17.2326 7.85534 17.0105C7.85173 17.0096 7.77141 17.3373 7.67694 17.7389ZM7.12981 20.259C7.12981 20.2724 7.00098 20.9873 6.84355 21.8475C6.20468 25.3387 5.77252 28.8661 5.55605 32.3558C5.42039 34.5416 5.50335 35.1732 6.08093 36.352C6.44692 37.0989 7.41918 38.1431 8.13798 38.561C9.02495 39.0767 12.4912 40.1205 14.9377 40.6085C17.0661 41.0331 20.4345 41.4467 21.764 41.4467C22.4665 41.4467 22.5216 41.3354 22.9991 38.9557C23.2353 37.778 23.4286 36.7399 23.4286 36.6487C23.4286 36.5576 23.3485 36.384 23.2506 36.2629C23.0981 36.0741 22.9078 36.0237 21.9235 35.9105C20.8091 35.7824 18.9817 35.4087 19.0644 35.3258C19.0869 35.3033 19.4082 35.3477 19.7786 35.4243C21.4486 35.7702 23.0059 35.9176 24.9902 35.9176C26.9744 35.9176 28.5318 35.7702 30.2018 35.4243C30.5721 35.3477 30.8934 35.3033 30.916 35.3258C30.9986 35.4087 29.1712 35.7824 28.0569 35.9105C27.0725 36.0237 26.8823 36.0741 26.7297 36.2629C26.6318 36.384 26.5517 36.5576 26.5517 36.6487C26.5517 36.7399 26.7451 37.778 26.9812 38.9557C27.4587 41.3354 27.5138 41.4467 28.2163 41.4467C30.4793 41.4467 35.1396 40.7053 38.0893 39.8761C40.9577 39.0696 41.9114 38.6576 42.7683 37.8548C44.107 36.6007 44.647 35.0055 44.4671 32.8368L44.461 32.7625C44.4265 32.3468 44.0653 32.0354 43.6491 32.0626C43.2273 32.0901 42.8992 32.4402 42.8991 32.8629L42.8989 33.4311C42.8985 35.0467 42.7277 35.5741 41.9228 36.445C41.2386 37.185 40.7724 37.4248 38.8769 38.011C35.8362 38.9515 31.9462 39.6773 29.2844 39.8007C28.9749 39.8151 28.7006 39.603 28.6365 39.2999L28.5316 38.8033C28.4127 38.2411 28.3138 37.7129 28.312 37.6295C28.3092 37.5138 28.4998 37.4503 29.1209 37.3604C31.9924 36.9446 34.9438 35.5411 37.0212 33.6034C37.3871 33.2621 37.4826 33.1078 37.4826 32.8578C37.4826 32.4808 37.1109 32.0616 36.7794 32.0645C36.6562 32.0656 35.9406 32.2644 35.1891 32.5064C31.5683 33.6718 27.6221 34.4088 25.0042 34.4085C22.3384 34.4083 18.3941 33.6733 14.7483 32.4976C14.0065 32.2583 13.3045 32.0626 13.1882 32.0626C12.8664 32.0626 12.4977 32.4876 12.4977 32.8587C12.4977 33.1177 12.5995 33.2703 13.0589 33.7006C13.8341 34.4266 15.5904 35.5872 16.6976 36.1052C17.904 36.6695 19.3113 37.1043 20.6188 37.3167C21.2417 37.4179 21.6717 37.5332 21.6718 37.5992C21.6719 37.7255 21.2993 39.5839 21.2425 39.7403C21.2002 39.857 19.9871 39.7782 18.0608 39.5335C14.948 39.1381 10.1446 37.9094 8.93438 37.199C7.99022 36.6449 7.21833 35.4727 7.06637 34.3625C6.95569 33.5539 7.32129 29.1625 7.76946 25.9164C7.98573 24.35 8.50661 21.2571 8.6533 20.668C8.69819 20.4877 8.6368 20.4538 8.0763 20.3503C7.47706 20.2398 7.13 20.2063 7.12981 20.259ZM16.0222 21.2689C13.5476 21.9355 12.0166 24.5018 12.6472 26.9265C13.2514 29.25 15.486 30.7681 17.8082 30.433C19.8846 30.1335 21.5017 28.5196 21.7993 26.45C22.2671 23.1979 19.1707 20.4208 16.0222 21.2689ZM31.6377 21.2689C29.1631 21.9355 27.6321 24.5018 28.2627 26.9265C28.8669 29.25 31.1015 30.7681 33.4237 30.433C35.5001 30.1335 37.1172 28.5196 37.4149 26.45C37.8826 23.1979 34.7862 20.4208 31.6377 21.2689ZM18.4607 22.9634C19.1364 23.2815 19.5576 23.6839 19.9202 24.3573C20.2238 24.9213 20.2532 25.0485 20.2546 25.8065C20.2559 26.5771 20.2307 26.6834 19.9071 27.2727C18.4061 30.0058 14.3343 29.1381 14.0825 26.0317C13.9684 24.6239 14.821 23.341 16.2069 22.835C16.7887 22.6226 17.8673 22.6841 18.4607 22.9634ZM34.0763 22.9634C34.7519 23.2815 35.1732 23.6839 35.5357 24.3573C35.8393 24.9213 35.8687 25.0485 35.8701 25.8065C35.8715 26.5771 35.8463 26.6834 35.5226 27.2727C34.0216 30.0058 29.9499 29.1381 29.6981 26.0317C29.584 24.6239 30.4366 23.341 31.8225 22.835C32.4042 22.6226 33.4829 22.6841 34.0763 22.9634Z" fill="white"/>
</svg>
