<svg width="58" height="50" viewBox="0 0 58 50" fill="none" xmlns="http://www.w3.org/2000/svg">
<path fill-rule="evenodd" clip-rule="evenodd" d="M46.3964 0.207697C45.3476 0.522683 44.7612 0.888161 43.9574 1.72793C42.1644 3.60137 41.7774 6.14663 42.9282 8.49716C43.3092 9.27534 44.2879 10.3521 45.0113 10.7893C45.9702 11.3687 46.7639 11.5854 47.9267 11.5854C49.5894 11.5854 50.7896 11.0644 51.966 9.83191C54.1421 7.55209 54.1115 4.04294 51.8953 1.72711C51.4887 1.30226 50.8976 0.819671 50.5818 0.654639C49.303 -0.0135535 47.7023 -0.18443 46.3964 0.207697ZM49.3447 2.65676C50.6007 3.26944 51.2647 4.36505 51.2682 5.83071C51.2698 6.53361 51.2152 6.81868 50.992 7.26947C49.6738 9.93266 46.1796 9.93266 44.8615 7.26947C44.4901 6.51935 44.4728 5.21183 44.8236 4.42221C45.6342 2.59809 47.6281 1.81945 49.3447 2.65676ZM38.698 3.38526C38.1738 4.02751 38.3792 4.86704 39.1408 5.19512C40.2768 5.68449 41.2094 4.26325 40.3404 3.36726C40.0726 3.0912 39.9114 3.02563 39.5003 3.02563C39.0713 3.02563 38.9455 3.08208 38.698 3.38526ZM34.607 3.69464C34.1982 3.79831 32.8987 4.7587 32.2378 5.44548C30.9736 6.75942 30.4629 7.78444 29.5627 10.8146C29.2355 11.9166 28.9305 12.8799 28.8852 12.9555C28.8322 13.044 28.1488 13.1313 26.9692 13.2002C21.5787 13.5158 16.8248 14.8954 12.672 17.3496L11.8218 17.8521L10.8335 17.3514C9.5946 16.7239 8.72808 16.5234 7.2874 16.5311C4.5025 16.5462 2.0519 18.1679 0.761415 20.8496C-0.710669 23.9088 -0.00308043 27.6312 2.49366 29.9606C2.87579 30.3171 3.23072 30.6089 3.28241 30.6089C3.33422 30.6089 3.37684 31.0165 3.37718 31.5147C3.38342 39.958 11.2041 47.2908 22.4812 49.427C25.9955 50.0927 30.7613 50.1884 34.1536 49.6613C37.643 49.1192 42.089 47.7402 42.9094 46.9455C43.2802 46.5864 43.2652 45.8207 42.8795 45.4229C42.4721 45.003 42.1347 44.9775 41.2655 45.3012C38.3295 46.3943 36.8333 46.8261 34.7002 47.1955C28.0418 48.3488 21.0547 47.44 15.5626 44.7065C12.8995 43.381 11.1225 42.1008 9.43964 40.2956C7.49246 38.2065 6.37225 36.1441 5.86066 33.7061C5.64833 32.6945 5.66999 30.2657 5.90011 29.2614C7.0295 24.3338 11.1315 20.1531 17.2901 17.6528C24.4489 14.7465 33.5425 14.7465 40.7013 17.6528C46.8599 20.1531 50.9626 24.3345 52.0912 29.2614C52.3791 30.5184 52.3492 32.8405 52.0281 34.1666C51.5659 36.0748 50.4417 38.1887 49.0196 39.8239C48.6202 40.2831 48.2654 40.8038 48.231 40.981C48.1465 41.4165 48.4738 42.084 48.866 42.2759C49.3932 42.5337 49.8155 42.347 50.5757 41.5193C53.0945 38.777 54.6116 35.0223 54.6142 31.5243C54.6149 30.6335 54.6173 30.6264 54.9953 30.3855C55.9877 29.7532 57.1359 28.099 57.6108 26.6177C58.2373 24.6635 58.1055 22.6679 57.2295 20.8496C55.9367 18.1657 53.4896 16.5462 50.704 16.5311C49.2621 16.5234 48.3957 16.7241 47.1579 17.3527L46.1696 17.8545L45.4328 17.4085C41.7459 15.1771 36.9594 13.6802 32.1414 13.2521C31.6583 13.2092 31.2629 13.1419 31.2629 13.1027C31.2629 12.8454 32.4812 9.15741 32.7425 8.62374C33.1722 7.74599 34.0493 6.77929 35.0047 6.13038C35.436 5.83737 35.8418 5.49573 35.9064 5.37126C36.2047 4.7968 35.9042 3.94581 35.3303 3.73952C35.1321 3.66834 34.9393 3.6161 34.9018 3.62358C34.8643 3.63106 34.7317 3.66297 34.607 3.69464ZM9.1211 19.1041L9.70796 19.3016L8.26013 20.7769C6.14383 22.9334 5.0023 24.6634 4.23622 26.8754C4.03444 27.4583 3.83152 27.9347 3.78527 27.9341C3.63847 27.9324 3.05025 27.0967 2.75824 26.4752C1.81668 24.471 2.31342 21.8278 3.91598 20.3152C4.63388 19.6376 5.68325 19.0744 6.51825 18.9185C7.2518 18.7815 8.40795 18.8639 9.1211 19.1041ZM51.3714 18.9183C55.2069 19.5659 57.0288 24.3799 54.6207 27.5041C54.4388 27.7401 54.2523 27.9335 54.2061 27.9341C54.1599 27.9347 53.957 27.4583 53.7552 26.8754C52.989 24.6629 51.8477 22.9334 49.73 20.7756L48.281 19.299L48.869 19.1166C49.9677 18.7755 50.3477 18.7454 51.3714 18.9183ZM19.6153 23.6599C18.7227 23.9077 18.138 24.2567 17.4824 24.9327C15.7989 26.6684 15.6077 29.2969 17.0212 31.2765C18.7487 33.696 22.1766 33.9311 24.1783 31.7674C25.245 30.6143 25.717 29.1383 25.488 27.6722C25.0346 24.7692 22.3142 22.9106 19.6153 23.6599ZM36.2534 23.6667C33.9454 24.3061 32.4353 26.7217 32.8254 29.1497C33.2512 31.7992 35.752 33.6633 38.2434 33.1884C40.8453 32.6925 42.5869 30.2219 42.1689 27.6202C41.7061 24.7411 38.9717 22.9135 36.2534 23.6667ZM21.8037 26.0373C22.0566 26.1557 22.448 26.4748 22.6733 26.7463C24.5271 28.9792 21.8137 32.1047 19.4331 30.4788C18.3256 29.7225 18.0069 28.0543 18.7565 26.9383C19.4073 25.9699 20.7879 25.5616 21.8037 26.0373ZM38.5962 26.1129C39.4054 26.5287 39.9924 27.4526 39.9909 28.3081C39.9886 29.6922 38.794 30.9595 37.4918 30.9595C36.9633 30.9595 36.2101 30.6151 35.7698 30.172C34.5611 28.9556 34.8499 26.9516 36.3505 26.1434C37.1367 25.72 37.8134 25.7107 38.5962 26.1129ZM19.5296 37.9037C18.9274 38.5247 19.0477 39.2198 19.869 39.8622C21.1914 40.8971 23.5729 41.9642 25.6078 42.434C26.62 42.6677 27.0952 42.7058 28.9957 42.7058C31.4341 42.7058 32.6447 42.5105 34.4418 41.8273C36.0846 41.2028 38.188 39.9876 38.6308 39.4072C38.9489 38.9902 38.9224 38.4197 38.5645 37.9812C38.1141 37.4293 37.549 37.4784 36.5341 38.1576C34.2359 39.6957 31.738 40.4545 28.9869 40.4504C26.2291 40.4463 23.7486 39.691 21.4573 38.1576C20.5099 37.5236 19.9677 37.4521 19.5296 37.9037ZM45.0247 43.3953C44.6006 43.8326 44.5376 44.2093 44.8008 44.7342C45.088 45.3068 45.772 45.4873 46.3408 45.1409C47.3419 44.5312 46.8909 42.998 45.7105 42.998C45.5201 42.998 45.2691 43.1434 45.0247 43.3953Z" fill="white"/>
</svg>
