<svg width="68" height="63" viewBox="0 0 68 63" fill="none" xmlns="http://www.w3.org/2000/svg">
<path fill-rule="evenodd" clip-rule="evenodd" d="M2.53373 2.55828L5.06747 5.11657H34.3752H63.683L65.8415 2.55828L68 0H34H0L2.53373 2.55828ZM8.94151 9.63904L11.427 12.456L18.1435 12.4816L24.86 12.5072L25.0287 16.5134L25.1973 20.5191L29.7874 14.9654C32.312 11.9102 34.848 8.82835 35.4235 8.11658L36.4689 6.82209H21.4627H6.45597L8.94151 9.63904ZM37.8201 15.0282C33.8302 19.8952 34.0975 18.2033 34.1033 38.5115C34.1061 48.6736 34.2978 57.2632 34.5296 57.5992C34.7614 57.9352 36.5653 59.2882 38.5373 60.6049L42.1233 63V40.8066V18.6138H50.0126L57.9018 18.6132L60.3718 15.7712L62.8424 12.9287H51.1916H39.5414L37.8201 15.0282ZM29.0576 19.5009L25.459 23.8119L25.615 34.7796L25.7711 52.26L29.0639 54.5016C30.8747 55.7347 32.4922 56.6091 32.6585 56.4448C32.8244 56.2799 32.8921 41.8831 32.8083 32.4112L32.6562 15.1899L29.0576 19.5009Z" fill="white"/>
</svg>
