<svg width="1219" height="310" viewBox="0 0 1219 310" fill="none" xmlns="http://www.w3.org/2000/svg">
<path d="M53.5 145L214.976 145C232.828 146.827 269.326 163.831 272.5 217.235C275.674 270.639 315.478 283.326 334.983 282.994H416.359M469.359 281H569.976C587.828 279.173 624.326 262.169 627.5 208.765C630.674 155.361 705.119 142.674 724.624 143.006H886M939 145H1117.5M1117.5 145C1140 146.167 1185.2 160.9 1186 210.5V236.5M1117.5 145C1140 143.833 1185.2 129.1 1186 79.5V53.5M29 119C43.0833 119 54.5 130.417 54.5 144.5C54.5 158.583 43.0833 170 29 170C14.9167 170 3.5 158.583 3.5 144.5C3.5 130.417 14.9167 119 29 119ZM444.859 307C458.942 307 470.359 295.583 470.359 281.5C470.359 267.417 458.942 256 444.859 256C430.776 256 419.359 267.417 419.359 281.5C419.359 295.583 430.776 307 444.859 307ZM911 119C925.083 119 936.5 130.417 936.5 144.5C936.5 158.583 925.083 170 911 170C896.917 170 885.5 158.583 885.5 144.5C885.5 130.417 896.917 119 911 119ZM1190 236C1204.08 236 1215.5 247.417 1215.5 261.5C1215.5 275.583 1204.08 287 1190 287C1175.92 287 1164.5 275.583 1164.5 261.5C1164.5 247.417 1175.92 236 1190 236ZM1190 54C1204.08 54 1215.5 42.5833 1215.5 28.5C1215.5 14.4167 1204.08 3 1190 3C1175.92 3 1164.5 14.4167 1164.5 28.5C1164.5 42.5833 1175.92 54 1190 54Z" stroke="url(#paint0_linear_2_529)" stroke-width="6"/>
<defs>
<linearGradient id="paint0_linear_2_529" x1="3.50004" y1="222.831" x2="224.158" y2="-311.907" gradientUnits="userSpaceOnUse">
<stop stop-color="#B2FF0F"/>
<stop offset="1" stop-color="#76FFEF"/>
</linearGradient>
</defs>
</svg>
