<svg width="19" height="19" viewBox="0 0 19 19" fill="none" xmlns="http://www.w3.org/2000/svg">
<path fill-rule="evenodd" clip-rule="evenodd" d="M4.93601 0.0361455C3.07992 0.243366 1.42987 1.40652 0.577298 3.10867C0.303978 3.65428 0.111029 4.32546 0.0401575 4.97689C-0.0133858 5.46935 -0.0133858 13.5251 0.0401575 14.0176C0.324572 16.6322 2.36708 18.6753 4.98095 18.9598C5.47327 19.0134 13.5267 19.0134 14.0191 18.9598C15.2928 18.8212 16.4059 18.2934 17.3248 17.3924C18.2569 16.4784 18.8182 15.3199 18.9598 14.0176C19.0134 13.5251 19.0134 5.46935 18.9598 4.97689C18.8213 3.70279 18.2936 2.58938 17.3928 1.67019C16.4791 0.737792 15.321 0.176371 14.0191 0.0346608C13.5858 -0.0124769 5.35957 -0.0111036 4.93601 0.0361455ZM14.3601 0.826501C15.1142 1.00681 15.7246 1.27906 16.2938 1.68901C17.0499 2.23358 17.728 3.17259 18.0093 4.06434C18.251 4.83094 18.2384 4.53127 18.2384 9.49725C18.2384 13.7056 18.2339 14.0276 18.1714 14.3177C18.0722 14.7776 17.9328 15.1944 17.7662 15.5287C17.0711 16.923 15.8829 17.8338 14.3191 18.1711C14.0291 18.2337 13.7072 18.2381 9.5 18.2381C5.29282 18.2381 4.97093 18.2337 4.68091 18.1711C3.64626 17.948 2.78341 17.4802 2.10412 16.7743C1.45685 16.1016 1.04019 15.2991 0.828651 14.3177C0.766128 14.0276 0.761638 13.7056 0.761638 9.49725C0.761638 5.28885 0.766128 4.96686 0.828651 4.67676C1.04019 3.69537 1.45685 2.89288 2.10412 2.22022C2.85135 1.44363 3.89045 0.919291 4.95958 0.779252C5.10076 0.760768 7.19088 0.749076 9.64842 0.75301C13.7645 0.759617 14.1025 0.764888 14.3601 0.826501ZM4.92926 1.68418C4.14782 1.81573 3.44856 2.16651 2.86742 2.71862C2.23005 3.3241 1.82998 4.08142 1.68835 4.9505C1.60739 5.4473 1.60739 13.5472 1.68835 14.044C1.92323 15.4853 2.92853 16.6831 4.29097 17.145C4.86188 17.3385 5.14703 17.3656 6.61445 17.3658L7.94038 17.3659L8.06071 17.2583C8.22309 17.1133 8.23084 16.8961 8.07912 16.7442L7.97711 16.6421L6.50295 16.6213L5.02878 16.6005L4.69483 16.4985C3.61487 16.1686 2.83821 15.3925 2.49851 14.3038L2.39428 13.9698V9.49725V5.02473L2.49851 4.69068C2.83788 3.60299 3.60745 2.83319 4.69483 2.49373L5.02878 2.38947H9.5H13.9712L14.3052 2.49373C15.3926 2.83319 16.1621 3.60299 16.5015 4.69068L16.6057 5.02473V9.49725V13.9698L16.5015 14.3038C16.1618 15.3924 15.3858 16.1679 14.3052 16.4987L13.9712 16.6009L12.5798 16.6129C11.8145 16.6195 11.1493 16.6336 11.1017 16.6443C11.054 16.6549 10.9747 16.7072 10.9254 16.7604C10.7658 16.9326 10.8258 17.2114 11.0467 17.3244C11.1762 17.3907 13.6242 17.3798 14.0454 17.3112C15.7335 17.0359 17.0365 15.7326 17.3117 14.044C17.3926 13.5472 17.3926 5.4473 17.3117 4.9505C17.0365 3.26193 15.7335 1.95859 14.0454 1.68333C13.5834 1.60798 5.37735 1.60876 4.92926 1.68418ZM13.9267 3.29188C12.9398 3.64226 12.6491 4.88113 13.3819 5.61417C14.0736 6.30595 15.2287 6.09134 15.6554 5.19175C15.7387 5.01623 15.7523 4.93821 15.7523 4.63501C15.7523 4.31755 15.7409 4.25835 15.6374 4.04115C15.4028 3.54802 14.9555 3.25224 14.4165 3.23364C14.2011 3.22622 14.0667 3.24222 13.9267 3.29188ZM14.631 4.01802C15.223 4.27138 15.121 5.15222 14.4845 5.28343C14.0773 5.36735 13.6287 4.91861 13.7126 4.51126C13.7497 4.33102 13.9003 4.12521 14.0546 4.04371C14.2185 3.95719 14.4634 3.94628 14.631 4.01802ZM9.05473 4.40129C8.32457 4.45874 7.13452 4.85496 7.01367 5.08089C6.92959 5.23804 6.95834 5.42061 7.08502 5.53382C7.23422 5.66718 7.3238 5.66398 7.69322 5.51233C8.4219 5.2132 8.76828 5.14161 9.5 5.13897C10.0415 5.13704 10.4232 5.19108 10.8316 5.32749C12.3529 5.83565 13.4562 7.07188 13.7913 8.64357C13.8832 9.07475 13.8836 9.91785 13.7922 10.3467C13.4172 12.104 12.1072 13.4157 10.3534 13.7898C9.92033 13.8821 9.07967 13.8821 8.64657 13.7898C7.07534 13.4546 5.83946 12.3509 5.33145 10.8292C5.19446 10.4188 5.14076 10.0392 5.14306 9.49725C5.14633 8.73369 5.24952 8.29208 5.61442 7.48031C5.7231 7.23853 5.73961 7.16968 5.712 7.07336C5.66514 6.91002 5.56388 6.82238 5.39601 6.79997C5.1942 6.77306 5.0962 6.86206 4.90692 7.24414C3.94155 9.19289 4.34147 11.5664 5.89579 13.1132C7.90435 15.112 11.0957 15.112 13.1042 13.1132C15.1151 11.1121 15.1151 7.88239 13.1042 5.8813C12.0215 4.80381 10.5897 4.28051 9.05473 4.40129ZM6.06042 5.71869C6.01556 5.74037 5.95178 5.81519 5.91868 5.88494C5.77686 6.18395 6.04603 6.48463 6.36213 6.38029C6.73634 6.25677 6.66447 5.66951 6.27605 5.67679C6.20228 5.67816 6.10525 5.69702 6.06042 5.71869ZM8.89644 6.21301C7.86954 6.40779 6.97051 7.09307 6.51126 8.03115C6.25267 8.55932 6.18577 8.86074 6.18577 9.49725C6.18577 9.935 6.20087 10.0908 6.26673 10.3324C6.52035 11.2623 7.18216 12.0689 8.03433 12.4867C8.56205 12.7454 8.86353 12.8124 9.5 12.8124C10.1365 12.8124 10.438 12.7454 10.9657 12.4867C11.8178 12.0689 12.4797 11.2623 12.7333 10.3324C12.7991 10.0908 12.8142 9.935 12.8142 9.49725C12.8142 8.86085 12.7473 8.55947 12.4888 8.03115C12.0715 7.17829 11.2503 6.5056 10.3349 6.26653C9.942 6.16394 9.28416 6.13948 8.89644 6.21301ZM10.0118 6.957C10.1745 6.98996 10.4498 7.08795 10.6503 7.18427C10.9501 7.32832 11.0508 7.40199 11.324 7.67758C11.5916 7.94764 11.6731 8.05966 11.8133 8.35043C12.1883 9.1279 12.1883 9.86659 11.8133 10.6441C11.6731 10.9348 11.5916 11.0469 11.324 11.3169C11.0508 11.5925 10.9501 11.6662 10.6503 11.8102C9.86653 12.1867 9.13347 12.1867 8.34973 11.8102C8.04988 11.6662 7.94925 11.5925 7.67604 11.3169C7.40836 11.0469 7.32688 10.9348 7.18665 10.6441C7.0035 10.2643 6.90261 9.85701 6.90261 9.49725C6.90261 9.13748 7.0035 8.73016 7.18665 8.35043C7.32688 8.05966 7.40836 7.94764 7.67604 7.67758C7.94902 7.40222 8.0501 7.32817 8.34973 7.18405C8.91796 6.91068 9.43455 6.84013 10.0118 6.957ZM9.37013 16.6573C9.13366 16.7585 9.07113 17.0652 9.25039 17.2444C9.32683 17.3209 9.38787 17.3457 9.5 17.3457C9.9315 17.3457 9.98152 16.7148 9.55566 16.644C9.49443 16.6338 9.41095 16.6398 9.37013 16.6573Z" fill="white"/>
</svg>
