<svg width="19" height="19" viewBox="0 0 19 19" fill="none" xmlns="http://www.w3.org/2000/svg">
<path fill-rule="evenodd" clip-rule="evenodd" d="M0.751075 0.0705706C0.378047 0.199327 0.112953 0.493946 0.0323653 0.869345C0.00323642 1.00511 -0.00516041 3.50307 0.00290204 9.61226L0.014234 18.1651L0.0924807 18.334C0.206841 18.5809 0.381354 18.7606 0.620515 18.8779L0.831625 18.9814L7.53795 18.9912C12.5431 18.9986 14.2706 18.9902 14.3482 18.9582C14.4595 18.9123 14.5601 18.756 14.5601 18.6289C14.5601 18.5063 14.4633 18.3507 14.3568 18.3022C14.2824 18.2684 12.6942 18.2579 7.64581 18.2579C0.452838 18.2579 0.88156 18.2706 0.783139 18.0548C0.718714 17.9136 0.718714 1.08827 0.783139 0.947044C0.858673 0.781478 0.986929 0.744002 1.47822 0.744002C1.96999 0.744002 2.09026 0.710903 2.17196 0.553093C2.27142 0.360997 2.20246 0.12853 2.0216 0.0462292C1.86176 -0.0264979 0.983623 -0.00968903 0.751075 0.0705706ZM3.15785 0.0536875C2.83576 0.23198 2.97051 0.744002 3.33953 0.744002C3.52779 0.744002 3.71107 0.56274 3.71107 0.376544C3.71107 0.0979546 3.4028 -0.0819338 3.15785 0.0536875ZM4.64401 0.0534649C4.395 0.191906 4.40318 0.583965 4.65746 0.69966C4.73184 0.733501 6.31922 0.744002 11.3648 0.744002C16.4104 0.744002 17.9978 0.754503 18.0722 0.788343C18.2894 0.887155 18.2755 0.291869 18.2755 9.50094C18.2755 18.71 18.2894 18.1147 18.0722 18.2135C18.0139 18.2401 17.7954 18.2579 17.5288 18.2579C17.0375 18.2579 16.9093 18.2954 16.8337 18.4609C16.7751 18.5894 16.7777 18.6844 16.8433 18.8111C16.9306 18.9796 17.058 19.0085 17.6508 18.9942C18.1439 18.9824 18.198 18.9739 18.3937 18.8779C18.6329 18.7606 18.8074 18.5809 18.9218 18.334L19 18.1651V9.50094V0.836766L18.8963 0.625931C18.7789 0.387082 18.5989 0.212797 18.3517 0.0985854L18.1826 0.0204408L11.4577 0.0122404C5.91818 0.00552431 4.71717 0.0127599 4.64401 0.0534649ZM4.16621 2.69034C3.45842 2.85094 2.89948 3.37854 2.69286 4.08099C2.61592 4.3427 2.61592 4.86329 2.69286 5.125C3.008 6.19653 4.15008 6.81171 5.17216 6.4605C5.51219 6.34366 5.69165 6.2319 5.94459 5.97928C6.56514 5.35961 6.70399 4.48823 6.30722 3.70325C6.16986 3.43153 5.77495 3.02006 5.53341 2.89702C5.08845 2.67038 4.58783 2.59469 4.16621 2.69034ZM5.11208 3.52849C5.3641 3.65183 5.55681 3.84871 5.68893 4.1178C5.80731 4.35891 5.8056 4.84396 5.68555 5.09041C5.55135 5.36581 5.36554 5.55342 5.09529 5.68629C4.61949 5.92021 4.09424 5.82974 3.71661 5.44882C3.48867 5.21895 3.39901 5.0096 3.38267 4.66908C3.36643 4.33082 3.42859 4.11294 3.6083 3.8781C3.97245 3.40222 4.57022 3.26326 5.11208 3.52849ZM12.1079 6.81019C11.5805 6.92807 11.1843 7.09241 10.7986 7.35312C10.6814 7.43238 10.5769 7.49724 10.5664 7.49724C10.556 7.49724 10.5474 7.44551 10.5474 7.38225C10.5474 7.22113 10.4495 7.0329 10.3396 6.98291C10.2169 6.92711 7.49106 6.9234 7.38729 6.97887C7.19624 7.08095 7.20356 6.89442 7.20356 11.6692V16.1046L7.31194 16.2258L7.42032 16.3469L8.89047 16.3574C10.4787 16.3688 10.5188 16.3645 10.6299 16.1703C10.6669 16.1057 10.6816 15.4797 10.6961 13.3599L10.7146 10.6327L10.8244 10.4348C10.955 10.1993 11.0904 10.0778 11.3608 9.95371C11.8881 9.71167 12.5229 9.94347 12.8074 10.4819L12.9067 10.6698L12.9253 13.4055L12.9439 16.1412L13.0469 16.2441L13.1499 16.3469L14.6161 16.3574C16.2001 16.3688 16.2406 16.3645 16.3517 16.1703C16.3892 16.1046 16.3992 15.4448 16.3992 13.026C16.3992 10.2004 16.394 9.94053 16.3313 9.64996C16.0413 8.30577 15.0842 7.27594 13.7601 6.88332C13.3405 6.75894 12.503 6.72184 12.1079 6.81019ZM2.95929 7.04893L2.83795 7.1572V11.6222C2.83795 15.1813 2.84761 16.104 2.88551 16.1703C2.9966 16.3645 3.03669 16.3688 4.62495 16.3574L6.0951 16.3469L6.20348 16.2258L6.31186 16.1046V11.6692C6.31186 6.89442 6.31918 7.08095 6.12813 6.97887C6.08255 6.95449 5.51817 6.94065 4.56866 6.94065H3.08064L2.95929 7.04893ZM13.6498 7.62466C14.4263 7.88811 14.9968 8.37675 15.3423 9.07423C15.6449 9.68514 15.6376 9.59215 15.6376 12.7907V15.6234H14.653H13.6684L13.6678 13.2022C13.6672 10.5442 13.6649 10.5113 13.4432 10.0961C13.2273 9.69148 12.8006 9.33627 12.368 9.20087C12.0376 9.09746 11.5393 9.0982 11.2378 9.20254C10.638 9.41007 10.2177 9.83189 10.0188 10.4259C9.93859 10.6656 9.93699 10.712 9.92414 13.1466L9.91109 15.6234H8.92885H7.94664V11.6531V7.68277H8.8755H9.80435V8.11134C9.80435 8.61267 9.84552 8.72992 10.0446 8.79553C10.1162 8.81913 10.2113 8.82684 10.2559 8.81267C10.3006 8.79853 10.5057 8.61753 10.7117 8.41048C11.0948 8.0254 11.3369 7.85668 11.7396 7.69423C12.1267 7.53809 12.3823 7.49735 12.8881 7.51111C13.2739 7.52165 13.4029 7.54087 13.6498 7.62466ZM5.56878 11.6531V15.6234H4.58419H3.59961V11.6531V7.68277H4.58419H5.56878V11.6531ZM15.493 18.3097C15.1709 18.488 15.3057 19 15.6747 19C15.863 19 16.0462 18.8187 16.0462 18.6325C16.0462 18.354 15.738 18.1741 15.493 18.3097Z" fill="white"/>
</svg>
