<svg width="19" height="19" viewBox="0 0 19 19" fill="none" xmlns="http://www.w3.org/2000/svg">
<path fill-rule="evenodd" clip-rule="evenodd" d="M17.8075 0.0719578C17.1706 0.31263 0.416316 7.73041 0.329291 7.81025C-0.157642 8.25705 -0.093526 9.14316 0.448709 9.46053C0.525284 9.50536 1.48732 9.92502 2.58656 10.3931C3.68579 10.8612 4.58982 11.2495 4.59551 11.2559C4.60116 11.2624 4.95897 12.5648 5.39064 14.1501C5.82227 15.7353 6.20563 17.1002 6.24256 17.1832C6.45785 17.6667 6.96531 17.8648 7.3776 17.6263C7.47876 17.5677 8.09698 17.0211 8.75138 16.4116C9.40578 15.802 9.98145 15.2859 10.0306 15.2645C10.096 15.2361 10.1561 15.2463 10.2541 15.3022C10.3277 15.3443 11.3001 16.1347 12.4149 17.0585C13.5297 17.9824 14.5111 18.7902 14.5958 18.8536C14.7776 18.9896 15.0752 19.038 15.3012 18.9683C15.4992 18.9073 15.7745 18.6291 15.8499 18.4141C15.8825 18.3211 16.6133 14.3812 17.474 9.65876C19.2057 0.15719 19.1061 0.815706 18.8704 0.425452C18.6327 0.0318034 18.2503 -0.0953664 17.8075 0.0719578ZM18.2454 0.987911C18.2588 1.1532 15.1856 18.0167 15.1277 18.0964C15.1033 18.1299 15.0712 18.1572 15.0562 18.1572C15.0412 18.1572 14.0375 17.3358 12.8257 16.3319C10.4364 14.3526 10.4235 14.3437 10.0164 14.3916C9.91123 14.404 9.75098 14.4547 9.66031 14.5044C9.56964 14.554 8.94317 15.1095 8.26816 15.7389C7.59316 16.3684 7.03252 16.8832 7.02229 16.8829C6.94233 16.8811 6.81774 16.4695 6.09714 13.8257C5.64885 12.1809 5.26237 10.7864 5.23834 10.7268C5.21432 10.6671 5.16396 10.5964 5.1264 10.5697C5.08887 10.543 4.10683 10.1169 2.94411 9.62289C1.78143 9.1289 0.809009 8.69424 0.783236 8.65702C0.745042 8.60184 0.746976 8.5773 0.793687 8.52399C0.861708 8.44631 18.0983 0.840876 18.1794 0.852761C18.2122 0.857558 18.2394 0.91329 18.2454 0.987911ZM14.3473 3.80105C13.9698 4.02309 6.42378 9.36193 6.30318 9.49237C6.09703 9.7153 5.97341 10.0166 5.95255 10.3471C5.93644 10.6018 5.97028 10.7646 6.3934 12.4673C6.88346 14.4393 6.90893 14.5102 7.1715 14.6343C7.32063 14.7048 7.58379 14.6672 7.72091 14.5557C7.90002 14.4101 7.94781 14.226 8.06652 13.2241C8.21186 11.9974 8.23852 11.8937 8.48279 11.6045C8.58975 11.4778 10.1049 9.86178 11.8498 8.01332C13.5946 6.16486 15.0381 4.60499 15.0574 4.54697C15.2322 4.02228 14.7796 3.54688 14.3473 3.80105ZM12.47 6.18235C12.409 6.24967 11.3801 7.33965 10.1835 8.60456C8.98687 9.86946 7.93405 11.0034 7.84386 11.1244C7.59067 11.4643 7.47902 11.7889 7.40356 12.4045C7.36771 12.697 7.32915 12.9362 7.31788 12.9362C7.30657 12.9363 7.15893 12.3816 6.98978 11.7037C6.66095 10.3858 6.65303 10.3114 6.82172 10.1305C6.90086 10.0457 12.5121 6.06973 12.5629 6.06248C12.5728 6.06108 12.5309 6.11503 12.47 6.18235ZM15.5881 9.42938C15.4666 9.5461 15.3901 9.79425 15.3901 10.072C15.3901 10.4167 15.7914 10.6145 16.0024 10.3737C16.1814 10.1693 16.2292 9.66483 16.0874 9.47662C15.9604 9.30806 15.7365 9.28688 15.5881 9.42938ZM15.1896 11.4612C15.0738 11.5958 15.0601 11.656 14.6355 13.8913C14.3959 15.152 14.2 16.2565 14.2 16.3459C14.2 16.7048 14.5878 16.8965 14.8073 16.646C14.8605 16.5853 14.9119 16.5041 14.9216 16.4657C14.9313 16.4272 15.1351 15.3628 15.3746 14.1006C15.8539 11.5742 15.8556 11.5569 15.6391 11.4063C15.4623 11.2833 15.3287 11.2996 15.1896 11.4612Z" fill="white"/>
</svg>
