<svg width="21" height="19" viewBox="0 0 21 19" fill="none" xmlns="http://www.w3.org/2000/svg">
<path fill-rule="evenodd" clip-rule="evenodd" d="M13.8298 0.0425457C12.8566 0.165355 11.8434 0.726405 11.1294 1.5377C10.7542 1.96411 10.5619 2.26744 10.3131 2.82522C9.99888 3.52971 9.8825 4.05667 9.85464 4.90174L9.83249 5.5729L9.60184 5.54307C9.3656 5.51252 8.49723 5.33825 8.05627 5.23294C7.66002 5.13824 7.46503 5.26867 7.4525 5.63678C7.44321 5.90869 7.6001 6.0305 8.14454 6.17412C8.78661 6.34348 9.62263 6.47613 10.1192 6.48746C10.5475 6.49721 10.5488 6.49694 10.6526 6.36443C10.7472 6.24357 10.7544 6.20667 10.7313 5.95643C10.6686 5.27515 10.6587 4.71011 10.7039 4.38946C10.8101 3.63502 11.1569 2.84077 11.6288 2.27115C12.4353 1.29775 13.6705 0.77931 14.7995 0.940381C15.643 1.06074 16.2554 1.3667 16.8912 1.98551C17.0494 2.13946 17.2204 2.28756 17.2713 2.31463C17.401 2.38358 17.8033 2.29309 18.5137 2.03519C18.8304 1.92022 19.0896 1.83885 19.0896 1.85445C19.0896 1.92571 18.581 2.48431 18.3497 2.66714C17.9231 3.00429 17.861 3.07211 17.8341 3.23046C17.8047 3.40287 17.8944 3.63434 18.0189 3.70787C18.1413 3.78013 18.4104 3.76273 18.9152 3.64993L19.3777 3.54657L19.2029 3.74595C19.1067 3.85557 18.848 4.10713 18.628 4.30492C18.408 4.50271 18.2092 4.70326 18.1862 4.75059C18.1633 4.79792 18.1442 5.08788 18.1438 5.39492C18.1372 11.0572 14.9284 15.9859 10.2243 17.5591C8.57198 18.1118 6.76453 18.2522 5.00799 17.9644C4.19086 17.8306 2.98365 17.4524 2.34754 17.1311L2.09786 17.0049L2.34441 16.973C3.71477 16.7954 5.0979 16.2419 6.206 15.4279C6.85201 14.9532 6.92623 14.8716 6.92623 14.6357C6.92623 14.4884 6.90046 14.4179 6.81014 14.3183C6.71296 14.2111 6.64774 14.1855 6.40949 14.1612C5.69181 14.0882 4.94545 13.7975 4.44239 13.3952C4.11862 13.1363 3.73092 12.6918 3.50725 12.3233L3.30055 11.9826L3.72652 11.9544C4.61523 11.8953 4.92391 11.7449 4.92391 11.3706C4.92391 11.0971 4.81378 11.0052 4.24917 10.8072C3.60349 10.5808 3.19133 10.3 2.71425 9.76142C2.33241 9.33035 2.09157 8.93449 1.90049 8.42394C1.79875 8.15203 1.65402 7.60626 1.67703 7.58128C1.6825 7.57538 1.85336 7.62027 2.05677 7.6811C2.26017 7.7419 2.6056 7.80428 2.82437 7.81978L3.22215 7.84793L3.3483 7.70876C3.44923 7.59742 3.47446 7.53132 3.47446 7.37841C3.47446 7.17132 3.4664 7.1609 2.98135 6.73653C2.46428 6.28414 1.9738 5.43327 1.78046 4.65326C1.70169 4.33538 1.68706 4.16511 1.68759 3.57323C1.68821 2.97342 1.70247 2.81552 1.78506 2.4946L1.88179 2.11865L2.33911 2.61011C2.86793 3.17846 3.3896 3.66408 3.88435 4.04855C4.3132 4.3818 4.47937 4.40796 4.67033 4.17213C4.90596 3.88123 4.81937 3.67074 4.29199 3.25245C3.63205 2.72907 2.96462 2.05636 2.28241 1.22698C1.99377 0.876098 1.96435 0.852841 1.81021 0.853975C1.71751 0.8547 1.60726 0.889381 1.55737 0.933536C1.45751 1.02194 1.20171 1.56553 1.08316 1.94121C0.768023 2.93987 0.764859 4.25918 1.07527 5.21259C1.20406 5.60804 1.42542 6.10544 1.5916 6.37259C1.65751 6.47853 1.70058 6.56526 1.68726 6.56526C1.67399 6.56526 1.59061 6.52446 1.50202 6.47459C1.26471 6.34104 1.06977 6.35514 0.923558 6.51643C0.814006 6.63729 0.803445 6.67646 0.803445 6.96179C0.803445 7.65912 1.01947 8.56806 1.34492 9.23995C1.58909 9.74406 1.87456 10.1445 2.31495 10.6005C2.67011 10.9682 2.6976 11.008 2.59652 11.008C2.46486 11.008 2.29786 11.1752 2.25902 11.3459C2.20519 11.5826 2.59779 12.5264 2.97642 13.0707C3.51991 13.8519 4.35059 14.5199 5.11816 14.793C5.24246 14.8372 5.3597 14.8832 5.37868 14.8952C5.49218 14.967 4.22209 15.582 3.52397 15.7933C2.68889 16.0461 2.26276 16.1024 1.1642 16.1054C0.206125 16.108 0.187797 16.1098 0.0957912 16.2113C-0.0133505 16.3316 -0.0342666 16.6577 0.0592189 16.7819C0.0906136 16.8237 0.312513 16.9877 0.552329 17.1464C2.00076 18.1051 3.63579 18.7038 5.46744 18.9461C6.00559 19.0174 7.61642 19.0181 8.13846 18.9474C10.2348 18.6636 11.8963 18.0209 13.4468 16.894C16.7405 14.5003 18.7981 10.3911 18.9537 5.89654L18.9792 5.15987L19.12 5.04136C19.5985 4.63871 20.3032 3.82143 20.7571 3.14256C20.9648 2.83193 20.9996 2.75169 21 2.58328C21.0003 2.42379 20.9787 2.36608 20.8851 2.27727C20.7245 2.12486 20.5464 2.13701 20.1083 2.33036C19.9059 2.41971 19.7339 2.48581 19.7262 2.47724C19.7184 2.46867 19.7873 2.33947 19.8793 2.1901C20.1307 1.782 20.4154 1.09365 20.4375 0.840647C20.4543 0.647026 20.443 0.605772 20.3407 0.48795C20.1696 0.290929 19.9915 0.306569 19.572 0.555497C19.062 0.858145 18.6301 1.05548 18.0711 1.24117L17.5664 1.40881L17.3726 1.2292C16.6576 0.566468 15.7893 0.151664 14.8844 0.0403244C14.4429 -0.0139855 14.2747 -0.0136228 13.8298 0.0425457ZM5.91058 4.46753C5.77219 4.49532 5.61127 4.7335 5.61127 4.91058C5.61127 5.01951 5.64689 5.10157 5.73771 5.20176C6.11095 5.61352 6.68164 5.0444 6.32011 4.62098C6.20415 4.48521 6.07101 4.4353 5.91058 4.46753ZM14.9772 11.0951C14.8894 11.192 14.8571 11.2711 14.8571 11.3891C14.8571 11.7732 15.2937 11.9811 15.537 11.7127C15.7737 11.4516 15.585 10.9626 15.2475 10.9626C15.1363 10.9626 15.0661 10.997 14.9772 11.0951ZM14.1791 12.3607C14.1113 12.4064 13.9885 12.5339 13.9062 12.6439C13.4525 13.2509 12.6607 14.0072 11.9347 14.527C11.4051 14.9061 11.3642 14.9531 11.3642 15.1822C11.3642 15.4267 11.5378 15.632 11.7447 15.632C12.0597 15.632 13.1985 14.7285 14.0204 13.8264C14.8437 12.9228 14.9439 12.6964 14.6511 12.402C14.5059 12.2561 14.3541 12.2428 14.1791 12.3607Z" fill="white"/>
</svg>
